Benzinova-Thin-Condensed.ufo
<glyph name="dollar" format="1">
  <advance width="814"/>
  <unicode hex="0024"/>
  <outline>
    <contour>
      <point x="392" y="1168" type="line"/>
      <point x="392" y="1159"/>
      <point x="399" y="1152"/>
      <point x="408" y="1152" type="curve" smooth="yes"/>
      <point x="417" y="1152"/>
      <point x="424" y="1159"/>
      <point x="424" y="1168" type="curve" smooth="yes"/>
      <point x="424" y="1238" type="line" smooth="yes"/>
      <point x="424" y="1247"/>
      <point x="417" y="1254"/>
      <point x="408" y="1254" type="curve" smooth="yes"/>
      <point x="399" y="1254"/>
      <point x="392" y="1247"/>
      <point x="392" y="1238" type="curve" smooth="yes"/>
    </contour>
    <contour>
      <point x="392" y="-36" type="line"/>
      <point x="392" y="-45"/>
      <point x="399" y="-52"/>
      <point x="408" y="-52" type="curve" smooth="yes"/>
      <point x="417" y="-52"/>
      <point x="424" y="-45"/>
      <point x="424" y="-36" type="curve" smooth="yes"/>
      <point x="424" y="34" type="line" smooth="yes"/>
      <point x="424" y="43"/>
      <point x="417" y="50"/>
      <point x="408" y="50" type="curve" smooth="yes"/>
      <point x="399" y="50"/>
      <point x="392" y="43"/>
      <point x="392" y="34" type="curve" smooth="yes"/>
    </contour>
    <contour>
      <point x="669" y="932" type="curve" smooth="yes"/>
      <point x="669" y="923"/>
      <point x="676" y="916"/>
      <point x="685" y="916" type="curve" smooth="yes"/>
      <point x="694" y="916"/>
      <point x="701" y="923"/>
      <point x="701" y="932" type="curve" smooth="yes"/>
      <point x="701" y="1068"/>
      <point x="590" y="1179"/>
      <point x="453" y="1179" type="curve" smooth="yes"/>
      <point x="363" y="1179" type="line" smooth="yes"/>
      <point x="226" y="1179"/>
      <point x="115" y="1068"/>
      <point x="115" y="932" type="curve" smooth="yes"/>
      <point x="115" y="908" type="line" smooth="yes"/>
      <point x="115" y="771"/>
      <point x="226" y="661"/>
      <point x="363" y="661" type="curve" smooth="yes"/>
      <point x="463" y="661" type="line" smooth="yes"/>
      <point x="595" y="661"/>
      <point x="704" y="553"/>
      <point x="704" y="420" type="curve" smooth="yes"/>
      <point x="704" y="300" type="line" smooth="yes"/>
      <point x="704" y="168"/>
      <point x="595" y="60"/>
      <point x="463" y="60" type="curve" smooth="yes"/>
      <point x="353" y="60" type="line" smooth="yes"/>
      <point x="220" y="60"/>
      <point x="112" y="168"/>
      <point x="112" y="301" type="curve" smooth="yes"/>
      <point x="112" y="310"/>
      <point x="105" y="317"/>
      <point x="96" y="317" type="curve" smooth="yes"/>
      <point x="87" y="317"/>
      <point x="80" y="310"/>
      <point x="80" y="301" type="curve" smooth="yes"/>
      <point x="80" y="150"/>
      <point x="202" y="28"/>
      <point x="353" y="28" type="curve" smooth="yes"/>
      <point x="463" y="28" type="line" smooth="yes"/>
      <point x="613" y="28"/>
      <point x="736" y="150"/>
      <point x="736" y="300" type="curve" smooth="yes"/>
      <point x="736" y="420" type="line" smooth="yes"/>
      <point x="736" y="571"/>
      <point x="613" y="693"/>
      <point x="463" y="693" type="curve" smooth="yes"/>
      <point x="363" y="693" type="line" smooth="yes"/>
      <point x="244" y="693"/>
      <point x="147" y="789"/>
      <point x="147" y="908" type="curve" smooth="yes"/>
      <point x="147" y="932" type="line" smooth="yes"/>
      <point x="147" y="1050"/>
      <point x="244" y="1147"/>
      <point x="363" y="1147" type="curve" smooth="yes"/>
      <point x="453" y="1147" type="line" smooth="yes"/>
      <point x="572" y="1147"/>
      <point x="669" y="1050"/>
    </contour>
  </outline>
</glyph>
<glyph name="ampersand" format="1">
  <advance width="722.0"/>
  <unicode hex="0026"/>
  <outline>
    <contour>
      <point x="495" y="805" type="curve" smooth="yes"/>
      <point x="495" y="796"/>
      <point x="502" y="789"/>
      <point x="511" y="789" type="curve" smooth="yes"/>
      <point x="520" y="789"/>
      <point x="527" y="796"/>
      <point x="527" y="805" type="curve" smooth="yes"/>
      <point x="527" y="915"/>
      <point x="436" y="1006"/>
      <point x="325" y="1006" type="curve" smooth="yes"/>
      <point x="215" y="1006"/>
      <point x="124" y="915"/>
      <point x="124" y="805" type="curve" smooth="yes"/>
      <point x="124" y="733" type="line" smooth="yes"/>
      <point x="124" y="623"/>
      <point x="215" y="532"/>
      <point x="325" y="532" type="curve" smooth="yes"/>
      <point x="334" y="532"/>
      <point x="341" y="539"/>
      <point x="341" y="548" type="curve" smooth="yes"/>
      <point x="341" y="557"/>
      <point x="334" y="564"/>
      <point x="325" y="564" type="curve" smooth="yes"/>
      <point x="233" y="564"/>
      <point x="156" y="641"/>
      <point x="156" y="733" type="curve" smooth="yes"/>
      <point x="156" y="805" type="line" smooth="yes"/>
      <point x="156" y="897"/>
      <point x="233" y="974"/>
      <point x="325" y="974" type="curve" smooth="yes"/>
      <point x="418" y="974"/>
      <point x="495" y="897"/>
    </contour>
    <contour>
      <point x="666" y="-16" type="curve" smooth="yes"/>
      <point x="675" y="-16"/>
      <point x="682" y="-9"/>
      <point x="682" y="0" type="curve" smooth="yes"/>
      <point x="682" y="9"/>
      <point x="675" y="16"/>
      <point x="666" y="16" type="curve" smooth="yes"/>
      <point x="616" y="16"/>
      <point x="576" y="58"/>
      <point x="576" y="108" type="curve" smooth="yes"/>
      <point x="576" y="313" type="line" smooth="yes"/>
      <point x="576" y="452"/>
      <point x="464" y="564"/>
      <point x="325" y="564" type="curve" smooth="yes"/>
      <point x="187" y="564"/>
      <point x="75" y="452"/>
      <point x="75" y="313" type="curve" smooth="yes"/>
      <point x="75" y="219" type="line" smooth="yes"/>
      <point x="75" y="80"/>
      <point x="187" y="-32"/>
      <point x="325" y="-32" type="curve" smooth="yes"/>
      <point x="458" y="-32"/>
      <point x="578" y="22"/>
      <point x="664" y="109" type="curve" smooth="yes"/>
      <point x="670" y="115"/>
      <point x="670" y="125"/>
      <point x="664" y="131" type="curve" smooth="yes"/>
      <point x="658" y="137"/>
      <point x="648" y="137"/>
      <point x="642" y="131" type="curve" smooth="yes"/>
      <point x="562" y="50"/>
      <point x="450" y="0"/>
      <point x="325" y="0" type="curve" smooth="yes"/>
      <point x="205" y="0"/>
      <point x="107" y="98"/>
      <point x="107" y="219" type="curve" smooth="yes"/>
      <point x="107" y="313" type="line" smooth="yes"/>
      <point x="107" y="434"/>
      <point x="205" y="532"/>
      <point x="325" y="532" type="curve" smooth="yes"/>
      <point x="446" y="532"/>
      <point x="544" y="434"/>
      <point x="544" y="313" type="curve" smooth="yes"/>
      <point x="544" y="108" type="line" smooth="yes"/>
      <point x="544" y="40"/>
      <point x="598" y="-16"/>
    </contour>
  </outline>
</glyph>
<glyph name="parenright" format="1">
  <advance width="409.0"/>
  <unicode hex="0029"/>
  <outline>
    <contour>
      <point x="85" y="1207" type="curve" smooth="yes"/>
      <point x="218" y="1040"/>
      <point x="297" y="828"/>
      <point x="297" y="600" type="curve" smooth="yes"/>
      <point x="297" y="372"/>
      <point x="218" y="161"/>
      <point x="86" y="-6" type="curve" smooth="yes"/>
      <point x="81" y="-13"/>
      <point x="82" y="-23"/>
      <point x="89" y="-29" type="curve" smooth="yes"/>
      <point x="96" y="-34"/>
      <point x="106" y="-33"/>
      <point x="112" y="-26" type="curve" smooth="yes"/>
      <point x="248" y="147"/>
      <point x="329" y="364"/>
      <point x="329" y="600" type="curve" smooth="yes"/>
      <point x="329" y="836"/>
      <point x="248" y="1054"/>
      <point x="111" y="1227" type="curve" smooth="yes"/>
      <point x="105" y="1234"/>
      <point x="95" y="1235"/>
      <point x="88" y="1230" type="curve" smooth="yes"/>
      <point x="81" y="1224"/>
      <point x="80" y="1214"/>
    </contour>
  </outline>
</glyph>
<glyph name="asterisk" format="1">
  <advance width="366.0"/>
  <unicode hex="002A"/>
  <outline>
    <contour>
      <point x="198" y="1211" type="line"/>
      <point x="198" y="1220"/>
      <point x="191" y="1227"/>
      <point x="182" y="1227" type="curve" smooth="yes"/>
      <point x="173" y="1227"/>
      <point x="166" y="1220"/>
      <point x="166" y="1211" type="curve" smooth="yes"/>
      <point x="166" y="997" type="line" smooth="yes"/>
      <point x="166" y="988"/>
      <point x="173" y="981"/>
      <point x="182" y="981" type="curve" smooth="yes"/>
      <point x="191" y="981"/>
      <point x="198" y="988"/>
      <point x="198" y="997" type="curve" smooth="yes"/>
    </contour>
    <contour>
      <point x="97" y="1171" type="line"/>
      <point x="90" y="1175"/>
      <point x="79" y="1172"/>
      <point x="75" y="1165" type="curve" smooth="yes"/>
      <point x="71" y="1158"/>
      <point x="74" y="1147"/>
      <point x="81" y="1143" type="curve" smooth="yes"/>
      <point x="267" y="1037" type="line" smooth="yes"/>
      <point x="274" y="1033"/>
      <point x="285" y="1036"/>
      <point x="289" y="1043" type="curve" smooth="yes"/>
      <point x="293" y="1050"/>
      <point x="290" y="1061"/>
      <point x="283" y="1065" type="curve" smooth="yes"/>
    </contour>
    <contour>
      <point x="283" y="1143" type="line"/>
      <point x="290" y="1147"/>
      <point x="293" y="1158"/>
      <point x="289" y="1165" type="curve" smooth="yes"/>
      <point x="285" y="1172"/>
      <point x="274" y="1175"/>
      <point x="267" y="1171" type="curve" smooth="yes"/>
      <point x="81" y="1065" type="line" smooth="yes"/>
      <point x="74" y="1061"/>
      <point x="71" y="1050"/>
      <point x="75" y="1043" type="curve" smooth="yes"/>
      <point x="79" y="1036"/>
      <point x="90" y="1033"/>
      <point x="97" y="1037" type="curve" smooth="yes"/>
    </contour>
  </outline>
</glyph>
<glyph name="four" format="1">
  <advance width="728.0"/>
  <unicode hex="0034"/>
  <outline>
    <contour>
      <point x="622" y="268" type="line"/>
      <point x="631" y="268"/>
      <point x="638" y="275"/>
      <point x="638" y="284" type="curve" smooth="yes"/>
      <point x="638" y="293"/>
      <point x="631" y="300"/>
      <point x="622" y="300" type="curve" smooth="yes"/>
      <point x="96" y="300" type="line"/>
      <point x="112" y="279" type="line"/>
      <point x="380" y="1179" type="line"/>
      <point x="364" y="1168" type="line"/>
      <point x="632" y="1168" type="line"/>
      <point x="616" y="1184" type="line"/>
      <point x="616" y="16" type="line" smooth="yes"/>
      <point x="616" y="7"/>
      <point x="623" y="0"/>
      <point x="632" y="0" type="curve" smooth="yes"/>
      <point x="641" y="0"/>
      <point x="648" y="7"/>
      <point x="648" y="16" type="curve" smooth="yes"/>
      <point x="648" y="1184" type="line" smooth="yes"/>
      <point x="648" y="1193"/>
      <point x="641" y="1200"/>
      <point x="632" y="1200" type="curve" smooth="yes"/>
      <point x="364" y="1200" type="line" smooth="yes"/>
      <point x="357" y="1200"/>
      <point x="351" y="1195"/>
      <point x="348" y="1189" type="curve" smooth="yes"/>
      <point x="80" y="289" type="line" smooth="yes"/>
      <point x="77" y="277"/>
      <point x="84" y="268"/>
      <point x="96" y="268" type="curve" smooth="yes"/>
    </contour>
  </outline>
</glyph>
<glyph name="six" format="1">
  <advance width="728.0"/>
  <unicode hex="0036"/>
  <outline>
    <contour>
      <point x="616" y="943" type="curve" smooth="yes"/>
      <point x="616" y="934"/>
      <point x="623" y="927"/>
      <point x="632" y="927" type="curve" smooth="yes"/>
      <point x="641" y="927"/>
      <point x="648" y="934"/>
      <point x="648" y="943" type="curve" smooth="yes"/>
      <point x="648" y="1099"/>
      <point x="520" y="1227"/>
      <point x="364" y="1227" type="curve" smooth="yes"/>
      <point x="207" y="1227"/>
      <point x="80" y="1099"/>
      <point x="80" y="943" type="curve" smooth="yes"/>
      <point x="80" y="257" type="line" smooth="yes"/>
      <point x="80" y="101"/>
      <point x="207" y="-27"/>
      <point x="364" y="-27" type="curve" smooth="yes"/>
      <point x="520" y="-27"/>
      <point x="648" y="101"/>
      <point x="648" y="257" type="curve" smooth="yes"/>
      <point x="648" y="494" type="line" smooth="yes"/>
      <point x="648" y="651"/>
      <point x="520" y="778"/>
      <point x="364" y="778" type="curve" smooth="yes"/>
      <point x="222" y="778"/>
      <point x="105" y="673"/>
      <point x="83" y="537" type="curve" smooth="yes"/>
      <point x="82" y="529"/>
      <point x="88" y="520"/>
      <point x="97" y="518" type="curve" smooth="yes"/>
      <point x="105" y="517"/>
      <point x="114" y="523"/>
      <point x="115" y="532" type="curve" smooth="yes"/>
      <point x="133" y="653"/>
      <point x="238" y="746"/>
      <point x="364" y="746" type="curve" smooth="yes"/>
      <point x="502" y="746"/>
      <point x="616" y="633"/>
      <point x="616" y="494" type="curve" smooth="yes"/>
      <point x="616" y="257" type="line" smooth="yes"/>
      <point x="616" y="119"/>
      <point x="502" y="5"/>
      <point x="364" y="5" type="curve" smooth="yes"/>
      <point x="225" y="5"/>
      <point x="112" y="119"/>
      <point x="112" y="257" type="curve" smooth="yes"/>
      <point x="112" y="943" type="line" smooth="yes"/>
      <point x="112" y="1081"/>
      <point x="225" y="1195"/>
      <point x="364" y="1195" type="curve" smooth="yes"/>
      <point x="502" y="1195"/>
      <point x="616" y="1081"/>
    </contour>
  </outline>
</glyph>
<glyph name="eight" format="1">
  <advance width="728.0"/>
  <unicode hex="0038"/>
  <outline>
    <contour>
      <point x="416" y="683" type="curve" smooth="yes"/>
      <point x="408" y="682"/>
      <point x="401" y="674"/>
      <point x="402" y="665" type="curve" smooth="yes"/>
      <point x="404" y="657"/>
      <point x="412" y="650"/>
      <point x="421" y="651" type="curve" smooth="yes"/>
      <point x="545" y="667"/>
      <point x="643" y="774"/>
      <point x="643" y="903" type="curve" smooth="yes"/>
      <point x="643" y="973" type="line" smooth="yes"/>
      <point x="643" y="1113"/>
      <point x="528" y="1227"/>
      <point x="389" y="1227" type="curve" smooth="yes"/>
      <point x="340" y="1227" type="line" smooth="yes"/>
      <point x="200" y="1227"/>
      <point x="87" y="1113"/>
      <point x="87" y="973" type="curve" smooth="yes"/>
      <point x="87" y="903" type="line" smooth="yes"/>
      <point x="87" y="763"/>
      <point x="200" y="649"/>
      <point x="340" y="649" type="curve" smooth="yes"/>
      <point x="389" y="649" type="line" smooth="yes"/>
      <point x="514" y="649"/>
      <point x="617" y="547"/>
      <point x="617" y="421" type="curve" smooth="yes"/>
      <point x="617" y="234" type="line" smooth="yes"/>
      <point x="617" y="109"/>
      <point x="514" y="5"/>
      <point x="389" y="5" type="curve" smooth="yes"/>
      <point x="340" y="5" type="line" smooth="yes"/>
      <point x="215" y="5"/>
      <point x="112" y="109"/>
      <point x="112" y="234" type="curve" smooth="yes"/>
      <point x="112" y="421" type="line" smooth="yes"/>
      <point x="112" y="539"/>
      <point x="202" y="636"/>
      <point x="316" y="648" type="curve" smooth="yes"/>
      <point x="325" y="649"/>
      <point x="332" y="657"/>
      <point x="331" y="665" type="curve" smooth="yes"/>
      <point x="330" y="674"/>
      <point x="322" y="681"/>
      <point x="314" y="680" type="curve" smooth="yes"/>
      <point x="182" y="666"/>
      <point x="80" y="555"/>
      <point x="80" y="421" type="curve" smooth="yes"/>
      <point x="80" y="234" type="line" smooth="yes"/>
      <point x="80" y="91"/>
      <point x="197" y="-27"/>
      <point x="340" y="-27" type="curve" smooth="yes"/>
      <point x="389" y="-27" type="line" smooth="yes"/>
      <point x="532" y="-27"/>
      <point x="649" y="91"/>
      <point x="649" y="234" type="curve" smooth="yes"/>
      <point x="649" y="421" type="line" smooth="yes"/>
      <point x="649" y="565"/>
      <point x="532" y="681"/>
      <point x="389" y="681" type="curve" smooth="yes"/>
      <point x="340" y="681" type="line" smooth="yes"/>
      <point x="218" y="681"/>
      <point x="119" y="781"/>
      <point x="119" y="903" type="curve" smooth="yes"/>
      <point x="119" y="973" type="line" smooth="yes"/>
      <point x="119" y="1095"/>
      <point x="218" y="1195"/>
      <point x="340" y="1195" type="curve" smooth="yes"/>
      <point x="389" y="1195" type="line" smooth="yes"/>
      <point x="510" y="1195"/>
      <point x="611" y="1095"/>
      <point x="611" y="973" type="curve" smooth="yes"/>
      <point x="611" y="903" type="line" smooth="yes"/>
      <point x="611" y="790"/>
      <point x="525" y="697"/>
    </contour>
  </outline>
</glyph>
<glyph name="nine" format="1">
  <advance width="728.0"/>
  <unicode hex="0039"/>
  <outline>
    <contour>
      <point x="112" y="257" type="curve" smooth="yes"/>
      <point x="112" y="266"/>
      <point x="105" y="273"/>
      <point x="96" y="273" type="curve" smooth="yes"/>
      <point x="87" y="273"/>
      <point x="80" y="266"/>
      <point x="80" y="257" type="curve" smooth="yes"/>
      <point x="80" y="101"/>
      <point x="208" y="-27"/>
      <point x="364" y="-27" type="curve" smooth="yes"/>
      <point x="521" y="-27"/>
      <point x="648" y="101"/>
      <point x="648" y="257" type="curve" smooth="yes"/>
      <point x="648" y="943" type="line" smooth="yes"/>
      <point x="648" y="1099"/>
      <point x="521" y="1227"/>
      <point x="364" y="1227" type="curve" smooth="yes"/>
      <point x="208" y="1227"/>
      <point x="80" y="1099"/>
      <point x="80" y="943" type="curve" smooth="yes"/>
      <point x="80" y="706" type="line" smooth="yes"/>
      <point x="80" y="549"/>
      <point x="208" y="422"/>
      <point x="364" y="422" type="curve" smooth="yes"/>
      <point x="506" y="422"/>
      <point x="623" y="527"/>
      <point x="645" y="663" type="curve" smooth="yes"/>
      <point x="646" y="671"/>
      <point x="640" y="680"/>
      <point x="631" y="682" type="curve" smooth="yes"/>
      <point x="623" y="683"/>
      <point x="614" y="677"/>
      <point x="613" y="668" type="curve" smooth="yes"/>
      <point x="595" y="547"/>
      <point x="490" y="454"/>
      <point x="364" y="454" type="curve" smooth="yes"/>
      <point x="226" y="454"/>
      <point x="112" y="567"/>
      <point x="112" y="706" type="curve" smooth="yes"/>
      <point x="112" y="943" type="line" smooth="yes"/>
      <point x="112" y="1081"/>
      <point x="226" y="1195"/>
      <point x="364" y="1195" type="curve" smooth="yes"/>
      <point x="503" y="1195"/>
      <point x="616" y="1081"/>
      <point x="616" y="943" type="curve" smooth="yes"/>
      <point x="616" y="257" type="line" smooth="yes"/>
      <point x="616" y="119"/>
      <point x="503" y="5"/>
      <point x="364" y="5" type="curve" smooth="yes"/>
      <point x="226" y="5"/>
      <point x="112" y="119"/>
    </contour>
  </outline>
</glyph>
<glyph name="greater" format="1">
  <advance width="674"/>
  <unicode hex="003E"/>
  <outline>
    <contour>
      <point x="108" y="860" type="line"/>
      <point x="102" y="865"/>
      <point x="92" y="865"/>
      <point x="86" y="858" type="curve" smooth="yes"/>
      <point x="81" y="852"/>
      <point x="81" y="842"/>
      <point x="88" y="836" type="curve" smooth="yes"/>
      <point x="572" y="414" type="line"/>
      <point x="572" y="438" type="line"/>
      <point x="86" y="14" type="line" smooth="yes"/>
      <point x="79" y="8"/>
      <point x="79" y="-2"/>
      <point x="84" y="-8" type="curve" smooth="yes"/>
      <point x="90" y="-15"/>
      <point x="100" y="-15"/>
      <point x="106" y="-10" type="curve" smooth="yes"/>
      <point x="592" y="414" type="line" smooth="yes"/>
      <point x="601" y="421"/>
      <point x="601" y="431"/>
      <point x="592" y="438" type="curve" smooth="yes"/>
    </contour>
  </outline>
</glyph>
<glyph name="at" format="1">
  <advance width="848"/>
  <unicode hex="0040"/>
  <outline>
    <contour>
      <point x="657" y="496" type="curve" smooth="yes"/>
      <point x="657" y="505"/>
      <point x="650" y="512"/>
      <point x="641" y="512" type="curve" smooth="yes"/>
      <point x="632" y="512"/>
      <point x="625" y="505"/>
      <point x="625" y="496" type="curve" smooth="yes"/>
      <point x="625" y="390"/>
      <point x="537" y="301"/>
      <point x="430" y="301" type="curve" smooth="yes"/>
      <point x="323" y="301"/>
      <point x="235" y="390"/>
      <point x="235" y="496" type="curve" smooth="yes"/>
      <point x="235" y="599" type="line" smooth="yes"/>
      <point x="235" y="706"/>
      <point x="323" y="794"/>
      <point x="430" y="794" type="curve" smooth="yes"/>
      <point x="537" y="794"/>
      <point x="625" y="709"/>
      <point x="625" y="602" type="curve" smooth="yes"/>
      <point x="626" y="369" type="line"/>
      <point x="626" y="327"/>
      <point x="660" y="293"/>
      <point x="702" y="293" type="curve" smooth="yes"/>
      <point x="745" y="293"/>
      <point x="779" y="327"/>
      <point x="779" y="369" type="curve" smooth="yes"/>
      <point x="779" y="771" type="line" smooth="yes"/>
      <point x="779" y="963"/>
      <point x="622" y="1120"/>
      <point x="430" y="1120" type="curve" smooth="yes"/>
      <point x="237" y="1120"/>
      <point x="80" y="963"/>
      <point x="80" y="771" type="curve" smooth="yes"/>
      <point x="80" y="318" type="line" smooth="yes"/>
      <point x="80" y="125"/>
      <point x="237" y="-32"/>
      <point x="430" y="-32" type="curve" smooth="yes"/>
      <point x="538" y="-32"/>
      <point x="629" y="19"/>
      <point x="690" y="99" type="curve" smooth="yes"/>
      <point x="695" y="106"/>
      <point x="693" y="116"/>
      <point x="686" y="120" type="curve" smooth="yes"/>
      <point x="679" y="125"/>
      <point x="669" y="124"/>
      <point x="665" y="116" type="curve" smooth="yes"/>
      <point x="609" y="47"/>
      <point x="527" y="0"/>
      <point x="430" y="0" type="curve" smooth="yes"/>
      <point x="255" y="0"/>
      <point x="112" y="143"/>
      <point x="112" y="318" type="curve" smooth="yes"/>
      <point x="112" y="771" type="line" smooth="yes"/>
      <point x="112" y="945"/>
      <point x="255" y="1088"/>
      <point x="430" y="1088" type="curve" smooth="yes"/>
      <point x="604" y="1088"/>
      <point x="747" y="945"/>
      <point x="747" y="771" type="curve" smooth="yes"/>
      <point x="747" y="369" type="line" smooth="yes"/>
      <point x="747" y="345"/>
      <point x="727" y="325"/>
      <point x="702" y="325" type="curve" smooth="yes"/>
      <point x="678" y="325"/>
      <point x="658" y="345"/>
      <point x="658" y="369" type="curve" smooth="yes"/>
      <point x="657" y="602" type="line" smooth="yes"/>
      <point x="657" y="727"/>
      <point x="555" y="826"/>
      <point x="430" y="826" type="curve" smooth="yes"/>
      <point x="305" y="826"/>
      <point x="203" y="724"/>
      <point x="203" y="599" type="curve" smooth="yes"/>
      <point x="203" y="496" type="line" smooth="yes"/>
      <point x="203" y="372"/>
      <point x="305" y="269"/>
      <point x="430" y="269" type="curve" smooth="yes"/>
      <point x="555" y="269"/>
      <point x="657" y="372"/>
    </contour>
  </outline>
</glyph>
<glyph name="A" format="1">
  <advance width="834"/>
  <unicode hex="0041"/>
  <outline>
    <contour>
      <point x="147" y="300" type="line"/>
      <point x="138" y="300"/>
      <point x="131" y="293"/>
      <point x="131" y="284" type="curve" smooth="yes"/>
      <point x="131" y="275"/>
      <point x="138" y="268"/>
      <point x="147" y="268" type="curve" smooth="yes"/>
      <point x="685" y="268" type="line" smooth="yes"/>
      <point x="694" y="268"/>
      <point x="701" y="275"/>
      <point x="701" y="284" type="curve" smooth="yes"/>
      <point x="701" y="293"/>
      <point x="694" y="300"/>
      <point x="685" y="300" type="curve" smooth="yes"/>
    </contour>
    <contour>
      <point x="730" y="13" type="line"/>
      <point x="732" y="4"/>
      <point x="740" y="-1"/>
      <point x="749" y="0" type="curve" smooth="yes"/>
      <point x="757" y="2"/>
      <point x="763" y="11"/>
      <point x="761" y="19" type="curve" smooth="yes"/>
      <point x="513" y="1203" type="line" smooth="yes"/>
      <point x="512" y="1210"/>
      <point x="505" y="1216"/>
      <point x="498" y="1216" type="curve" smooth="yes"/>
      <point x="336" y="1216" type="line" smooth="yes"/>
      <point x="329" y="1216"/>
      <point x="322" y="1210"/>
      <point x="320" y="1203" type="curve" smooth="yes"/>
      <point x="72" y="19" type="line" smooth="yes"/>
      <point x="71" y="11"/>
      <point x="76" y="2"/>
      <point x="85" y="0" type="curve" smooth="yes"/>
      <point x="93" y="-1"/>
      <point x="102" y="4"/>
      <point x="104" y="13" type="curve" smooth="yes"/>
      <point x="352" y="1197" type="line"/>
      <point x="336" y="1184" type="line"/>
      <point x="498" y="1184" type="line"/>
      <point x="482" y="1197" type="line"/>
    </contour>
  </outline>
</glyph>
<glyph name="C" format="1">
  <advance width="859"/>
  <unicode hex="0043"/>
  <outline>
    <contour>
      <point x="430" y="-32" type="curve" smooth="yes"/>
      <point x="571" y="-32"/>
      <point x="691" y="61"/>
      <point x="727" y="184" type="curve" smooth="yes"/>
      <point x="729" y="191"/>
      <point x="723" y="200"/>
      <point x="716" y="202" type="curve" smooth="yes"/>
      <point x="708" y="204"/>
      <point x="699" y="198"/>
      <point x="697" y="191" type="curve" smooth="yes"/>
      <point x="663" y="82"/>
      <point x="556" y="0"/>
      <point x="430" y="0" type="curve" smooth="yes"/>
      <point x="255" y="0"/>
      <point x="112" y="143"/>
      <point x="112" y="318" type="curve" smooth="yes"/>
      <point x="112" y="877" type="line" smooth="yes"/>
      <point x="112" y="1052"/>
      <point x="255" y="1195"/>
      <point x="430" y="1195" type="curve" smooth="yes"/>
      <point x="555" y="1195"/>
      <point x="663" y="1113"/>
      <point x="697" y="1004" type="curve" smooth="yes"/>
      <point x="699" y="997"/>
      <point x="708" y="991"/>
      <point x="715" y="993" type="curve" smooth="yes"/>
      <point x="723" y="995"/>
      <point x="728" y="1004"/>
      <point x="726" y="1011" type="curve" smooth="yes"/>
      <point x="690" y="1134"/>
      <point x="571" y="1227"/>
      <point x="430" y="1227" type="curve" smooth="yes"/>
      <point x="237" y="1227"/>
      <point x="80" y="1070"/>
      <point x="80" y="877" type="curve" smooth="yes"/>
      <point x="80" y="318" type="line" smooth="yes"/>
      <point x="80" y="125"/>
      <point x="237" y="-32"/>
    </contour>
  </outline>
</glyph>
<glyph name="D" format="1">
  <advance width="859.0"/>
  <unicode hex="0044"/>
  <outline>
    <contour>
      <point x="779" y="851" type="line"/>
      <point x="779" y="1043"/>
      <point x="622" y="1200"/>
      <point x="430" y="1200" type="curve" smooth="yes"/>
      <point x="97" y="1200" type="line" smooth="yes"/>
      <point x="88" y="1200"/>
      <point x="81" y="1193"/>
      <point x="81" y="1184" type="curve" smooth="yes"/>
      <point x="80" y="11" type="line" smooth="yes"/>
      <point x="80" y="2"/>
      <point x="87" y="-5"/>
      <point x="96" y="-5" type="curve" smooth="yes"/>
      <point x="430" y="-5" type="line" smooth="yes"/>
      <point x="622" y="-5"/>
      <point x="779" y="151"/>
      <point x="779" y="344" type="curve" smooth="yes"/>
    </contour>
    <contour>
      <point x="747" y="851" type="curve" smooth="yes"/>
      <point x="747" y="344" type="line" smooth="yes"/>
      <point x="747" y="169"/>
      <point x="604" y="27"/>
      <point x="430" y="27" type="curve" smooth="yes"/>
      <point x="96" y="27" type="line"/>
      <point x="112" y="11" type="line"/>
      <point x="113" y="1184" type="line"/>
      <point x="97" y="1168" type="line"/>
      <point x="430" y="1168" type="line" smooth="yes"/>
      <point x="604" y="1168"/>
      <point x="747" y="1025"/>
    </contour>
  </outline>
</glyph>
<glyph name="F" format="1">
  <advance width="869"/>
  <unicode hex="0046"/>
  <outline>
    <contour>
      <point x="80" y="16" type="line"/>
      <point x="80" y="7"/>
      <point x="87" y="0"/>
      <point x="96" y="0" type="curve" smooth="yes"/>
      <point x="105" y="0"/>
      <point x="112" y="7"/>
      <point x="112" y="16" type="curve" smooth="yes"/>
      <point x="112" y="1184" type="line"/>
      <point x="96" y="1168" type="line"/>
      <point x="773" y="1168" type="line" smooth="yes"/>
      <point x="782" y="1168"/>
      <point x="789" y="1175"/>
      <point x="789" y="1184" type="curve" smooth="yes"/>
      <point x="789" y="1193"/>
      <point x="782" y="1200"/>
      <point x="773" y="1200" type="curve" smooth="yes"/>
      <point x="96" y="1200" type="line" smooth="yes"/>
      <point x="87" y="1200"/>
      <point x="80" y="1193"/>
      <point x="80" y="1184" type="curve" smooth="yes"/>
    </contour>
    <contour>
      <point x="98" y="563" type="line"/>
      <point x="89" y="563"/>
      <point x="82" y="556"/>
      <point x="82" y="547" type="curve" smooth="yes"/>
      <point x="82" y="538"/>
      <point x="89" y="531"/>
      <point x="98" y="531" type="curve" smooth="yes"/>
      <point x="435" y="531" type="line" smooth="yes"/>
      <point x="444" y="531"/>
      <point x="451" y="538"/>
      <point x="451" y="547" type="curve" smooth="yes"/>
      <point x="451" y="556"/>
      <point x="444" y="563"/>
      <point x="435" y="563" type="curve" smooth="yes"/>
    </contour>
  </outline>
</glyph>
<glyph name="G" format="1">
  <advance width="859"/>
  <unicode hex="0047"/>
  <outline>
    <contour>
      <point x="524" y="460" type="line"/>
      <point x="515" y="460"/>
      <point x="508" y="453"/>
      <point x="508" y="444" type="curve" smooth="yes"/>
      <point x="508" y="435"/>
      <point x="515" y="428"/>
      <point x="524" y="428" type="curve" smooth="yes"/>
      <point x="763" y="428" type="line"/>
      <point x="747" y="444" type="line"/>
      <point x="747" y="318" type="line" smooth="yes"/>
      <point x="747" y="143"/>
      <point x="605" y="0"/>
      <point x="430" y="0" type="curve" smooth="yes"/>
      <point x="255" y="0"/>
      <point x="112" y="143"/>
      <point x="112" y="318" type="curve" smooth="yes"/>
      <point x="112" y="877" type="line" smooth="yes"/>
      <point x="112" y="1052"/>
      <point x="255" y="1195"/>
      <point x="430" y="1195" type="curve" smooth="yes"/>
      <point x="555" y="1195"/>
      <point x="663" y="1113"/>
      <point x="697" y="1004" type="curve" smooth="yes"/>
      <point x="699" y="996"/>
      <point x="707" y="991"/>
      <point x="715" y="993" type="curve" smooth="yes"/>
      <point x="723" y="995"/>
      <point x="728" y="1003"/>
      <point x="726" y="1011" type="curve" smooth="yes"/>
      <point x="690" y="1134"/>
      <point x="571" y="1227"/>
      <point x="430" y="1227" type="curve" smooth="yes"/>
      <point x="237" y="1227"/>
      <point x="80" y="1070"/>
      <point x="80" y="877" type="curve" smooth="yes"/>
      <point x="80" y="318" type="line" smooth="yes"/>
      <point x="80" y="125"/>
      <point x="237" y="-32"/>
      <point x="430" y="-32" type="curve" smooth="yes"/>
      <point x="623" y="-32"/>
      <point x="779" y="125"/>
      <point x="779" y="318" type="curve" smooth="yes"/>
      <point x="779" y="444" type="line" smooth="yes"/>
      <point x="779" y="453"/>
      <point x="772" y="460"/>
      <point x="763" y="460" type="curve" smooth="yes"/>
    </contour>
  </outline>
</glyph>
<glyph name="I" format="1">
  <advance width="279"/>
  <unicode hex="0049"/>
  <outline>
    <contour>
      <point x="139" y="0" type="curve" smooth="yes"/>
      <point x="147" y="0"/>
      <point x="155" y="8"/>
      <point x="155" y="16" type="curve" smooth="yes"/>
      <point x="155" y="1184" type="line" smooth="yes"/>
      <point x="155" y="1192"/>
      <point x="147" y="1200"/>
      <point x="139" y="1200" type="curve" smooth="yes"/>
      <point x="131" y="1200"/>
      <point x="123" y="1192"/>
      <point x="123" y="1184" type="curve" smooth="yes"/>
      <point x="123" y="16" type="line" smooth="yes"/>
      <point x="123" y="8"/>
      <point x="131" y="0"/>
    </contour>
  </outline>
</glyph>
<glyph name="R" format="1">
  <advance width="903"/>
  <unicode hex="0052"/>
  <outline>
    <contour>
      <point x="80" y="16" type="line"/>
      <point x="80" y="7"/>
      <point x="87" y="0"/>
      <point x="96" y="0" type="curve" smooth="yes"/>
      <point x="105" y="0"/>
      <point x="112" y="7"/>
      <point x="112" y="16" type="curve" smooth="yes"/>
      <point x="112" y="1184" type="line"/>
      <point x="96" y="1168" type="line"/>
      <point x="457" y="1168" type="line" smooth="yes"/>
      <point x="649" y="1168"/>
      <point x="795" y="1003"/>
      <point x="795" y="813" type="curve" smooth="yes"/>
      <point x="795" y="622"/>
      <point x="648" y="475"/>
      <point x="457" y="475" type="curve" smooth="yes"/>
      <point x="109" y="475" type="line" smooth="yes"/>
      <point x="100" y="475"/>
      <point x="93" y="468"/>
      <point x="93" y="459" type="curve" smooth="yes"/>
      <point x="93" y="450"/>
      <point x="100" y="443"/>
      <point x="109" y="443" type="curve" smooth="yes"/>
      <point x="457" y="443" type="line" smooth="yes"/>
      <point x="666" y="443"/>
      <point x="827" y="604"/>
      <point x="827" y="813" type="curve" smooth="yes"/>
      <point x="827" y="1021"/>
      <point x="665" y="1200"/>
      <point x="457" y="1200" type="curve" smooth="yes"/>
      <point x="96" y="1200" type="line" smooth="yes"/>
      <point x="87" y="1200"/>
      <point x="80" y="1193"/>
      <point x="80" y="1184" type="curve" smooth="yes"/>
    </contour>
    <contour>
      <point x="732" y="7" type="line"/>
      <point x="737" y="0"/>
      <point x="748" y="-2"/>
      <point x="754" y="3" type="curve" smooth="yes"/>
      <point x="761" y="7"/>
      <point x="763" y="18"/>
      <point x="759" y="25" type="curve" smooth="yes"/>
      <point x="474" y="460" type="line" smooth="yes"/>
      <point x="469" y="467"/>
      <point x="458" y="469"/>
      <point x="452" y="465" type="curve" smooth="yes"/>
      <point x="445" y="460"/>
      <point x="443" y="449"/>
      <point x="447" y="442" type="curve" smooth="yes"/>
    </contour>
  </outline>
</glyph>
<glyph name="S" format="1">
  <advance width="814"/>
  <unicode hex="0053"/>
  <outline>
    <contour>
      <point x="669" y="985" type="curve" smooth="yes"/>
      <point x="669" y="976"/>
      <point x="676" y="969"/>
      <point x="685" y="969" type="curve" smooth="yes"/>
      <point x="694" y="969"/>
      <point x="701" y="976"/>
      <point x="701" y="985" type="curve" smooth="yes"/>
      <point x="701" y="1121"/>
      <point x="590" y="1232"/>
      <point x="453" y="1232" type="curve" smooth="yes"/>
      <point x="363" y="1232" type="line" smooth="yes"/>
      <point x="226" y="1232"/>
      <point x="115" y="1122"/>
      <point x="115" y="985" type="curve" smooth="yes"/>
      <point x="115" y="908" type="line" smooth="yes"/>
      <point x="115" y="771"/>
      <point x="226" y="661"/>
      <point x="363" y="661" type="curve" smooth="yes"/>
      <point x="463" y="661" type="line" smooth="yes"/>
      <point x="595" y="661"/>
      <point x="704" y="553"/>
      <point x="704" y="420" type="curve" smooth="yes"/>
      <point x="704" y="240" type="line" smooth="yes"/>
      <point x="704" y="108"/>
      <point x="595" y="0"/>
      <point x="463" y="0" type="curve" smooth="yes"/>
      <point x="353" y="0" type="line" smooth="yes"/>
      <point x="220" y="0"/>
      <point x="112" y="108"/>
      <point x="112" y="241" type="curve" smooth="yes"/>
      <point x="112" y="250"/>
      <point x="105" y="257"/>
      <point x="96" y="257" type="curve" smooth="yes"/>
      <point x="87" y="257"/>
      <point x="80" y="250"/>
      <point x="80" y="241" type="curve" smooth="yes"/>
      <point x="80" y="90"/>
      <point x="202" y="-32"/>
      <point x="353" y="-32" type="curve" smooth="yes"/>
      <point x="463" y="-32" type="line" smooth="yes"/>
      <point x="613" y="-32"/>
      <point x="736" y="90"/>
      <point x="736" y="240" type="curve" smooth="yes"/>
      <point x="736" y="420" type="line" smooth="yes"/>
      <point x="736" y="571"/>
      <point x="613" y="693"/>
      <point x="463" y="693" type="curve" smooth="yes"/>
      <point x="363" y="693" type="line" smooth="yes"/>
      <point x="244" y="693"/>
      <point x="147" y="789"/>
      <point x="147" y="908" type="curve" smooth="yes"/>
      <point x="147" y="985" type="line" smooth="yes"/>
      <point x="147" y="1104"/>
      <point x="244" y="1200"/>
      <point x="363" y="1200" type="curve" smooth="yes"/>
      <point x="453" y="1200" type="line" smooth="yes"/>
      <point x="572" y="1200"/>
      <point x="669" y="1103"/>
    </contour>
  </outline>
</glyph>
<glyph name="U" format="1">
  <advance width="859.0"/>
  <unicode hex="0055"/>
  <outline>
    <contour>
      <point x="112" y="1184" type="line"/>
      <point x="112" y="1193"/>
      <point x="105" y="1200"/>
      <point x="96" y="1200" type="curve" smooth="yes"/>
      <point x="87" y="1200"/>
      <point x="80" y="1193"/>
      <point x="80" y="1184" type="curve" smooth="yes"/>
      <point x="80" y="318" type="line" smooth="yes"/>
      <point x="80" y="125"/>
      <point x="237" y="-32"/>
      <point x="430" y="-32" type="curve" smooth="yes"/>
      <point x="622" y="-32"/>
      <point x="779" y="125"/>
      <point x="779" y="318" type="curve" smooth="yes"/>
      <point x="779" y="1184" type="line" smooth="yes"/>
      <point x="779" y="1193"/>
      <point x="772" y="1200"/>
      <point x="763" y="1200" type="curve" smooth="yes"/>
      <point x="754" y="1200"/>
      <point x="747" y="1193"/>
      <point x="747" y="1184" type="curve" smooth="yes"/>
      <point x="747" y="318" type="line" smooth="yes"/>
      <point x="747" y="143"/>
      <point x="604" y="0"/>
      <point x="430" y="0" type="curve" smooth="yes"/>
      <point x="255" y="0"/>
      <point x="112" y="143"/>
      <point x="112" y="318" type="curve" smooth="yes"/>
    </contour>
  </outline>
</glyph>
<glyph name="W" format="1">
  <advance width="902"/>
  <unicode hex="0057"/>
  <outline>
    <contour>
      <point x="831" y="1182" type="line"/>
      <point x="832" y="1191"/>
      <point x="826" y="1199"/>
      <point x="818" y="1200" type="curve" smooth="yes"/>
      <point x="809" y="1201"/>
      <point x="801" y="1194"/>
      <point x="800" y="1186" type="curve" smooth="yes"/>
      <point x="642" y="2" type="line"/>
      <point x="673" y="5" type="line"/>
      <point x="466" y="652" type="line" smooth="yes"/>
      <point x="461" y="667"/>
      <point x="441" y="667"/>
      <point x="436" y="652" type="curve" smooth="yes"/>
      <point x="229" y="5" type="line"/>
      <point x="260" y="2" type="line"/>
      <point x="102" y="1186" type="line" smooth="yes"/>
      <point x="102" y="1194"/>
      <point x="93" y="1201"/>
      <point x="84" y="1200" type="curve" smooth="yes"/>
      <point x="76" y="1199"/>
      <point x="70" y="1191"/>
      <point x="71" y="1182" type="curve" smooth="yes"/>
      <point x="229" y="-2" type="line" smooth="yes"/>
      <point x="231" y="-20"/>
      <point x="254" y="-22"/>
      <point x="259" y="-5" type="curve" smooth="yes"/>
      <point x="466" y="641" type="line"/>
      <point x="436" y="641" type="line"/>
      <point x="643" y="-5" type="line" smooth="yes"/>
      <point x="648" y="-22"/>
      <point x="672" y="-20"/>
      <point x="674" y="-2" type="curve" smooth="yes"/>
    </contour>
  </outline>
</glyph>
<glyph name="Z" format="1">
  <advance width="859"/>
  <unicode hex="005A"/>
  <outline>
    <contour>
      <point x="96" y="1200" type="line"/>
      <point x="87" y="1200"/>
      <point x="80" y="1193"/>
      <point x="80" y="1184" type="curve" smooth="yes"/>
      <point x="80" y="1175"/>
      <point x="87" y="1168"/>
      <point x="96" y="1168" type="curve" smooth="yes"/>
      <point x="763" y="1168" type="line"/>
      <point x="749" y="1191" type="line"/>
      <point x="82" y="23" type="line" smooth="yes"/>
      <point x="76" y="12"/>
      <point x="83" y="0"/>
      <point x="96" y="0" type="curve" smooth="yes"/>
      <point x="763" y="0" type="line" smooth="yes"/>
      <point x="772" y="0"/>
      <point x="779" y="7"/>
      <point x="779" y="16" type="curve" smooth="yes"/>
      <point x="779" y="25"/>
      <point x="772" y="32"/>
      <point x="763" y="32" type="curve" smooth="yes"/>
      <point x="96" y="32" type="line"/>
      <point x="110" y="9" type="line"/>
      <point x="776" y="1177" type="line" smooth="yes"/>
      <point x="783" y="1188"/>
      <point x="776" y="1200"/>
      <point x="763" y="1200" type="curve" smooth="yes"/>
    </contour>
  </outline>
</glyph>
<glyph name="bracketleft" format="1">
  <advance width="414.0"/>
  <unicode hex="005B"/>
  <outline>
    <contour>
      <point x="338" y="1200" type="line"/>
      <point x="347" y="1200"/>
      <point x="354" y="1207"/>
      <point x="354" y="1216" type="curve" smooth="yes"/>
      <point x="354" y="1225"/>
      <point x="347" y="1232"/>
      <point x="338" y="1232" type="curve" smooth="yes"/>
      <point x="109" y="1232" type="line" smooth="yes"/>
      <point x="100" y="1232"/>
      <point x="93" y="1225"/>
      <point x="93" y="1216" type="curve" smooth="yes"/>
      <point x="93" y="-16" type="line" smooth="yes"/>
      <point x="93" y="-25"/>
      <point x="100" y="-32"/>
      <point x="109" y="-32" type="curve" smooth="yes"/>
      <point x="338" y="-32" type="line" smooth="yes"/>
      <point x="347" y="-32"/>
      <point x="354" y="-25"/>
      <point x="354" y="-16" type="curve" smooth="yes"/>
      <point x="354" y="-7"/>
      <point x="347" y="0"/>
      <point x="338" y="0" type="curve" smooth="yes"/>
      <point x="109" y="0" type="line"/>
      <point x="125" y="-16" type="line"/>
      <point x="125" y="1216" type="line"/>
      <point x="109" y="1200" type="line"/>
    </contour>
  </outline>
</glyph>
<glyph name="backslash" format="1">
  <advance width="408.0"/>
  <unicode hex="005C"/>
  <outline>
    <contour>
      <point x="310" y="-16" type="curve" smooth="yes"/>
      <point x="320" y="-16"/>
      <point x="326" y="-8"/>
      <point x="326" y="-2" type="curve" smooth="yes"/>
      <point x="326" y="0"/>
      <point x="326" y="0"/>
      <point x="326" y="2" type="curve"/>
      <point x="114" y="1202" type="line" smooth="yes"/>
      <point x="113" y="1210"/>
      <point x="106" y="1216"/>
      <point x="98" y="1216" type="curve" smooth="yes"/>
      <point x="88" y="1216"/>
      <point x="82" y="1208"/>
      <point x="82" y="1200" type="curve"/>
      <point x="82" y="1198" type="line"/>
      <point x="294" y="-2" type="line" smooth="yes"/>
      <point x="296" y="-10"/>
      <point x="302" y="-16"/>
    </contour>
  </outline>
</glyph>
<glyph name="underscore" format="1">
  <advance width="744.0"/>
  <unicode hex="005F"/>
  <outline>
    <contour>
      <point x="648" y="-16" type="line"/>
      <point x="656" y="-16"/>
      <point x="664" y="-8"/>
      <point x="664" y="0" type="curve" smooth="yes"/>
      <point x="664" y="8"/>
      <point x="656" y="16"/>
      <point x="648" y="16" type="curve" smooth="yes"/>
      <point x="96" y="16" type="line" smooth="yes"/>
      <point x="88" y="16"/>
      <point x="80" y="8"/>
      <point x="80" y="0" type="curve" smooth="yes"/>
      <point x="80" y="-8"/>
      <point x="88" y="-16"/>
      <point x="96" y="-16" type="curve" smooth="yes"/>
    </contour>
  </outline>
</glyph>
<glyph name="grave" format="1">
  <advance width="318.0"/>
  <unicode hex="0060"/>
  <outline>
    <contour>
      <point x="209" y="1267" type="line"/>
      <point x="215" y="1261"/>
      <point x="225" y="1261"/>
      <point x="231" y="1267" type="curve" smooth="yes"/>
      <point x="237" y="1273"/>
      <point x="237" y="1283"/>
      <point x="231" y="1289" type="curve" smooth="yes"/>
      <point x="97" y="1421" type="line" smooth="yes"/>
      <point x="91" y="1427"/>
      <point x="81" y="1427"/>
      <point x="75" y="1421" type="curve" smooth="yes"/>
      <point x="69" y="1415"/>
      <point x="69" y="1405"/>
      <point x="75" y="1399" type="curve" smooth="yes"/>
    </contour>
  </outline>
</glyph>
<glyph name="a" format="1">
  <advance width="775"/>
  <unicode hex="0061"/>
  <outline>
    <contour>
      <point x="663" y="27" type="line"/>
      <point x="663" y="18"/>
      <point x="670" y="11"/>
      <point x="679" y="11" type="curve" smooth="yes"/>
      <point x="688" y="11"/>
      <point x="695" y="18"/>
      <point x="695" y="27" type="curve" smooth="yes"/>
      <point x="695" y="587" type="line" smooth="yes"/>
      <point x="695" y="757"/>
      <point x="557" y="895"/>
      <point x="388" y="895" type="curve" smooth="yes"/>
      <point x="218" y="895"/>
      <point x="80" y="757"/>
      <point x="80" y="587" type="curve" smooth="yes"/>
      <point x="80" y="292" type="line" smooth="yes"/>
      <point x="80" y="122"/>
      <point x="218" y="-16"/>
      <point x="388" y="-16" type="curve" smooth="yes"/>
      <point x="558" y="-16"/>
      <point x="695" y="123"/>
      <point x="695" y="274" type="curve" smooth="yes"/>
      <point x="695" y="283"/>
      <point x="688" y="290"/>
      <point x="679" y="290" type="curve" smooth="yes"/>
      <point x="670" y="290"/>
      <point x="663" y="283"/>
      <point x="663" y="274" type="curve" smooth="yes"/>
      <point x="663" y="139"/>
      <point x="539" y="16"/>
      <point x="388" y="16" type="curve" smooth="yes"/>
      <point x="236" y="16"/>
      <point x="112" y="140"/>
      <point x="112" y="292" type="curve" smooth="yes"/>
      <point x="112" y="587" type="line" smooth="yes"/>
      <point x="112" y="739"/>
      <point x="236" y="863"/>
      <point x="388" y="863" type="curve" smooth="yes"/>
      <point x="539" y="863"/>
      <point x="663" y="739"/>
      <point x="663" y="587" type="curve" smooth="yes"/>
    </contour>
  </outline>
</glyph>
<glyph name="g" format="1">
  <advance width="775"/>
  <unicode hex="0067"/>
  <outline>
    <contour>
      <point x="112" y="-172" type="curve" smooth="yes"/>
      <point x="112" y="-163"/>
      <point x="105" y="-156"/>
      <point x="96" y="-156" type="curve" smooth="yes"/>
      <point x="87" y="-156"/>
      <point x="80" y="-163"/>
      <point x="80" y="-172" type="curve" smooth="yes"/>
      <point x="80" y="-342"/>
      <point x="218" y="-480"/>
      <point x="388" y="-480" type="curve" smooth="yes"/>
      <point x="557" y="-480"/>
      <point x="695" y="-342"/>
      <point x="695" y="-172" type="curve" smooth="yes"/>
      <point x="695" y="587" type="line" smooth="yes"/>
      <point x="695" y="757"/>
      <point x="557" y="895"/>
      <point x="388" y="895" type="curve" smooth="yes"/>
      <point x="218" y="895"/>
      <point x="80" y="757"/>
      <point x="80" y="587" type="curve" smooth="yes"/>
      <point x="80" y="292" type="line" smooth="yes"/>
      <point x="80" y="122"/>
      <point x="218" y="-16"/>
      <point x="388" y="-16" type="curve" smooth="yes"/>
      <point x="557" y="-16"/>
      <point x="695" y="122"/>
      <point x="695" y="292" type="curve" smooth="yes"/>
      <point x="695" y="301"/>
      <point x="688" y="308"/>
      <point x="679" y="308" type="curve" smooth="yes"/>
      <point x="670" y="308"/>
      <point x="663" y="301"/>
      <point x="663" y="292" type="curve" smooth="yes"/>
      <point x="663" y="140"/>
      <point x="539" y="16"/>
      <point x="388" y="16" type="curve" smooth="yes"/>
      <point x="236" y="16"/>
      <point x="112" y="140"/>
      <point x="112" y="292" type="curve" smooth="yes"/>
      <point x="112" y="587" type="line" smooth="yes"/>
      <point x="112" y="739"/>
      <point x="236" y="863"/>
      <point x="388" y="863" type="curve" smooth="yes"/>
      <point x="539" y="863"/>
      <point x="663" y="739"/>
      <point x="663" y="587" type="curve" smooth="yes"/>
      <point x="663" y="-172" type="line" smooth="yes"/>
      <point x="663" y="-324"/>
      <point x="539" y="-448"/>
      <point x="388" y="-448" type="curve" smooth="yes"/>
      <point x="236" y="-448"/>
      <point x="112" y="-324"/>
    </contour>
  </outline>
</glyph>
<glyph name="l" format="1">
  <advance width="252.0"/>
  <unicode hex="006C"/>
  <outline>
    <contour>
      <point x="126" y="0" type="curve" smooth="yes"/>
      <point x="134" y="0"/>
      <point x="142" y="8"/>
      <point x="142" y="16" type="curve" smooth="yes"/>
      <point x="142" y="1216" type="line" smooth="yes"/>
      <point x="142" y="1224"/>
      <point x="134" y="1232"/>
      <point x="126" y="1232" type="curve" smooth="yes"/>
      <point x="118" y="1232"/>
      <point x="110" y="1224"/>
      <point x="110" y="1216" type="curve" smooth="yes"/>
      <point x="110" y="16" type="line" smooth="yes"/>
      <point x="110" y="8"/>
      <point x="118" y="0"/>
    </contour>
  </outline>
</glyph>
<glyph name="q" format="1">
  <advance width="775"/>
  <unicode hex="0071"/>
  <outline>
    <contour>
      <point x="695" y="292" type="curve" smooth="yes"/>
      <point x="695" y="301"/>
      <point x="688" y="308"/>
      <point x="679" y="308" type="curve" smooth="yes"/>
      <point x="670" y="308"/>
      <point x="663" y="301"/>
      <point x="663" y="292" type="curve" smooth="yes"/>
      <point x="663" y="140"/>
      <point x="539" y="16"/>
      <point x="388" y="16" type="curve" smooth="yes"/>
      <point x="236" y="16"/>
      <point x="112" y="140"/>
      <point x="112" y="292" type="curve" smooth="yes"/>
      <point x="112" y="587" type="line" smooth="yes"/>
      <point x="112" y="739"/>
      <point x="236" y="863"/>
      <point x="388" y="863" type="curve" smooth="yes"/>
      <point x="539" y="863"/>
      <point x="663" y="739"/>
      <point x="663" y="587" type="curve" smooth="yes"/>
      <point x="663" y="-321" type="line" smooth="yes"/>
      <point x="663" y="-330"/>
      <point x="670" y="-337"/>
      <point x="679" y="-337" type="curve" smooth="yes"/>
      <point x="688" y="-337"/>
      <point x="695" y="-330"/>
      <point x="695" y="-321" type="curve" smooth="yes"/>
      <point x="695" y="587" type="line" smooth="yes"/>
      <point x="695" y="757"/>
      <point x="557" y="895"/>
      <point x="388" y="895" type="curve" smooth="yes"/>
      <point x="218" y="895"/>
      <point x="80" y="757"/>
      <point x="80" y="587" type="curve" smooth="yes"/>
      <point x="80" y="292" type="line" smooth="yes"/>
      <point x="80" y="122"/>
      <point x="218" y="-16"/>
      <point x="388" y="-16" type="curve" smooth="yes"/>
      <point x="557" y="-16"/>
      <point x="695" y="122"/>
    </contour>
  </outline>
</glyph>
<glyph name="u" format="1">
  <advance width="776"/>
  <unicode hex="0075"/>
  <outline>
    <contour>
      <point x="112" y="863" type="line"/>
      <point x="112" y="872"/>
      <point x="105" y="879"/>
      <point x="96" y="879" type="curve" smooth="yes"/>
      <point x="87" y="879"/>
      <point x="80" y="872"/>
      <point x="80" y="863" type="curve" smooth="yes"/>
      <point x="80" y="292" type="line" smooth="yes"/>
      <point x="80" y="122"/>
      <point x="218" y="-16"/>
      <point x="388" y="-16" type="curve" smooth="yes"/>
      <point x="528" y="-16"/>
      <point x="648" y="80"/>
      <point x="683" y="209" type="curve" smooth="yes"/>
      <point x="686" y="218"/>
      <point x="681" y="227"/>
      <point x="673" y="229" type="curve" smooth="yes"/>
      <point x="664" y="232"/>
      <point x="655" y="227"/>
      <point x="653" y="219" type="curve" smooth="yes"/>
      <point x="621" y="102"/>
      <point x="514" y="16"/>
      <point x="388" y="16" type="curve" smooth="yes"/>
      <point x="236" y="16"/>
      <point x="112" y="140"/>
      <point x="112" y="292" type="curve" smooth="yes"/>
    </contour>
    <contour>
      <point x="663" y="16" type="line"/>
      <point x="663" y="7"/>
      <point x="670" y="0"/>
      <point x="679" y="0" type="curve" smooth="yes"/>
      <point x="688" y="0"/>
      <point x="695" y="7"/>
      <point x="695" y="16" type="curve" smooth="yes"/>
      <point x="695" y="863" type="line" smooth="yes"/>
      <point x="695" y="872"/>
      <point x="688" y="879"/>
      <point x="679" y="879" type="curve" smooth="yes"/>
      <point x="670" y="879"/>
      <point x="663" y="872"/>
      <point x="663" y="863" type="curve" smooth="yes"/>
    </contour>
  </outline>
</glyph>
<glyph name="w" format="1">
  <advance width="941"/>
  <unicode hex="0077"/>
  <outline>
    <contour>
      <point x="92" y="872" type="line"/>
      <point x="90" y="880"/>
      <point x="81" y="886"/>
      <point x="72" y="884" type="curve" smooth="yes"/>
      <point x="64" y="882"/>
      <point x="59" y="873"/>
      <point x="60" y="865" type="curve" smooth="yes"/>
      <point x="254" y="-4" type="line" smooth="yes"/>
      <point x="258" y="-21"/>
      <point x="281" y="-21"/>
      <point x="285" y="-4" type="curve" smooth="yes"/>
      <point x="477" y="758" type="line"/>
      <point x="447" y="758" type="line"/>
      <point x="640" y="-4" type="line" smooth="yes"/>
      <point x="644" y="-21"/>
      <point x="668" y="-21"/>
      <point x="671" y="-4" type="curve" smooth="yes"/>
      <point x="864" y="865" type="line" smooth="yes"/>
      <point x="865" y="873"/>
      <point x="860" y="882"/>
      <point x="852" y="884" type="curve" smooth="yes"/>
      <point x="843" y="886"/>
      <point x="834" y="880"/>
      <point x="832" y="872" type="curve" smooth="yes"/>
      <point x="640" y="4" type="line"/>
      <point x="671" y="4" type="line"/>
      <point x="477" y="767" type="line" smooth="yes"/>
      <point x="473" y="783"/>
      <point x="451" y="783"/>
      <point x="447" y="767" type="curve" smooth="yes"/>
      <point x="255" y="4" type="line"/>
      <point x="286" y="4" type="line"/>
    </contour>
  </outline>
</glyph>
<glyph name="y" format="1">
  <advance width="749"/>
  <unicode hex="0079"/>
  <outline>
    <contour>
      <point x="98" y="868" type="line"/>
      <point x="95" y="876"/>
      <point x="85" y="881"/>
      <point x="78" y="878" type="curve" smooth="yes"/>
      <point x="70" y="875"/>
      <point x="65" y="866"/>
      <point x="67" y="858" type="curve" smooth="yes"/>
      <point x="358" y="17" type="line" smooth="yes"/>
      <point x="361" y="9"/>
      <point x="370" y="4"/>
      <point x="378" y="6" type="curve" smooth="yes"/>
      <point x="386" y="10"/>
      <point x="391" y="19"/>
      <point x="388" y="27" type="curve" smooth="yes"/>
    </contour>
    <contour>
      <point x="189" y="-467" type="line"/>
      <point x="186" y="-474"/>
      <point x="191" y="-484"/>
      <point x="199" y="-487" type="curve" smooth="yes"/>
      <point x="207" y="-490"/>
      <point x="216" y="-485"/>
      <point x="219" y="-477" type="curve" smooth="yes"/>
      <point x="681" y="858" type="line" smooth="yes"/>
      <point x="684" y="866"/>
      <point x="679" y="875"/>
      <point x="671" y="878" type="curve" smooth="yes"/>
      <point x="663" y="881"/>
      <point x="654" y="876"/>
      <point x="651" y="868" type="curve" smooth="yes"/>
    </contour>
  </outline>
</glyph>
<glyph name="z" format="1">
  <advance width="776.0"/>
  <unicode hex="007A"/>
  <outline>
    <contour>
      <point x="96" y="879" type="line"/>
      <point x="87" y="879"/>
      <point x="80" y="872"/>
      <point x="80" y="863" type="curve" smooth="yes"/>
      <point x="80" y="854"/>
      <point x="87" y="847"/>
      <point x="96" y="847" type="curve" smooth="yes"/>
      <point x="680" y="847" type="line"/>
      <point x="667" y="871" type="line"/>
      <point x="83" y="24" type="line" smooth="yes"/>
      <point x="76" y="13"/>
      <point x="82" y="0"/>
      <point x="96" y="0" type="curve" smooth="yes"/>
      <point x="680" y="0" type="line" smooth="yes"/>
      <point x="689" y="0"/>
      <point x="696" y="7"/>
      <point x="696" y="16" type="curve" smooth="yes"/>
      <point x="696" y="25"/>
      <point x="689" y="32"/>
      <point x="680" y="32" type="curve" smooth="yes"/>
      <point x="96" y="32" type="line"/>
      <point x="109" y="8" type="line"/>
      <point x="693" y="855" type="line" smooth="yes"/>
      <point x="700" y="866"/>
      <point x="694" y="879"/>
      <point x="680" y="879" type="curve" smooth="yes"/>
    </contour>
  </outline>
</glyph>
<glyph name="sterling" format="1">
  <advance width="723"/>
  <unicode hex="00A3"/>
  <outline>
    <contour>
      <point x="531" y="1184" type="curve" smooth="yes"/>
      <point x="540" y="1184"/>
      <point x="547" y="1191"/>
      <point x="547" y="1200" type="curve" smooth="yes"/>
      <point x="547" y="1209"/>
      <point x="540" y="1216"/>
      <point x="531" y="1216" type="curve" smooth="yes"/>
      <point x="362" y="1216"/>
      <point x="224" y="1078"/>
      <point x="224" y="908" type="curve" smooth="yes"/>
      <point x="224" y="150" type="line" smooth="yes"/>
      <point x="224" y="77"/>
      <point x="164" y="16"/>
      <point x="91" y="16" type="curve"/>
      <point x="91" y="-16" type="line"/>
      <point x="627" y="-16" type="line" smooth="yes"/>
      <point x="636" y="-16"/>
      <point x="643" y="-9"/>
      <point x="643" y="0" type="curve" smooth="yes"/>
      <point x="643" y="9"/>
      <point x="636" y="16"/>
      <point x="627" y="16" type="curve" smooth="yes"/>
      <point x="91" y="16" type="line"/>
      <point x="91" y="-16" type="line"/>
      <point x="182" y="-16"/>
      <point x="256" y="59"/>
      <point x="256" y="150" type="curve" smooth="yes"/>
      <point x="256" y="908" type="line" smooth="yes"/>
      <point x="256" y="1060"/>
      <point x="380" y="1184"/>
    </contour>
    <contour>
      <point x="438" y="627" type="line"/>
      <point x="447" y="627"/>
      <point x="454" y="634"/>
      <point x="454" y="643" type="curve" smooth="yes"/>
      <point x="454" y="652"/>
      <point x="447" y="659"/>
      <point x="438" y="659" type="curve" smooth="yes"/>
      <point x="250" y="659" type="line" smooth="yes"/>
      <point x="241" y="659"/>
      <point x="234" y="652"/>
      <point x="234" y="643" type="curve" smooth="yes"/>
      <point x="234" y="634"/>
      <point x="241" y="627"/>
      <point x="250" y="627" type="curve" smooth="yes"/>
    </contour>
  </outline>
</glyph>
<glyph name="currency" format="1">
  <advance width="816.0"/>
  <unicode hex="00A4"/>
  <outline>
    <contour>
      <point x="100" y="312" type="line"/>
      <point x="100" y="142"/>
      <point x="238" y="4"/>
      <point x="408" y="4" type="curve" smooth="yes"/>
      <point x="577" y="4"/>
      <point x="715" y="141"/>
      <point x="715" y="312" type="curve" smooth="yes"/>
      <point x="715" y="567" type="line" smooth="yes"/>
      <point x="715" y="737"/>
      <point x="577" y="875"/>
      <point x="408" y="875" type="curve" smooth="yes"/>
      <point x="237" y="875"/>
      <point x="100" y="736"/>
      <point x="100" y="567" type="curve" smooth="yes"/>
    </contour>
    <contour>
      <point x="132" y="312" type="curve" smooth="yes"/>
      <point x="132" y="567" type="line" smooth="yes"/>
      <point x="132" y="718"/>
      <point x="255" y="843"/>
      <point x="408" y="843" type="curve" smooth="yes"/>
      <point x="559" y="843"/>
      <point x="683" y="719"/>
      <point x="683" y="567" type="curve" smooth="yes"/>
      <point x="683" y="312" type="line" smooth="yes"/>
      <point x="683" y="159"/>
      <point x="559" y="36"/>
      <point x="408" y="36" type="curve" smooth="yes"/>
      <point x="256" y="36"/>
      <point x="132" y="160"/>
    </contour>
    <contour>
      <point x="103" y="40" type="line"/>
      <point x="97" y="34"/>
      <point x="97" y="24"/>
      <point x="103" y="18" type="curve" smooth="yes"/>
      <point x="109" y="12"/>
      <point x="119" y="12"/>
      <point x="125" y="18" type="curve" smooth="yes"/>
      <point x="203" y="96" type="line" smooth="yes"/>
      <point x="209" y="102"/>
      <point x="209" y="112"/>
      <point x="203" y="118" type="curve" smooth="yes"/>
      <point x="197" y="124"/>
      <point x="187" y="124"/>
      <point x="181" y="118" type="curve" smooth="yes"/>
    </contour>
    <contour>
      <point x="180" y="762" type="line"/>
      <point x="186" y="756"/>
      <point x="196" y="756"/>
      <point x="202" y="762" type="curve" smooth="yes"/>
      <point x="208" y="768"/>
      <point x="208" y="778"/>
      <point x="202" y="784" type="curve" smooth="yes"/>
      <point x="125" y="861" type="line" smooth="yes"/>
      <point x="119" y="867"/>
      <point x="109" y="867"/>
      <point x="103" y="861" type="curve" smooth="yes"/>
      <point x="97" y="855"/>
      <point x="97" y="845"/>
      <point x="103" y="839" type="curve" smooth="yes"/>
    </contour>
    <contour>
      <point x="713" y="840" type="line"/>
      <point x="719" y="846"/>
      <point x="719" y="856"/>
      <point x="713" y="862" type="curve" smooth="yes"/>
      <point x="707" y="868"/>
      <point x="697" y="868"/>
      <point x="691" y="862" type="curve" smooth="yes"/>
      <point x="613" y="784" type="line" smooth="yes"/>
      <point x="607" y="778"/>
      <point x="607" y="768"/>
      <point x="613" y="762" type="curve" smooth="yes"/>
      <point x="619" y="756"/>
      <point x="629" y="756"/>
      <point x="635" y="762" type="curve" smooth="yes"/>
    </contour>
    <contour>
      <point x="635" y="118" type="line"/>
      <point x="629" y="124"/>
      <point x="619" y="124"/>
      <point x="613" y="118" type="curve" smooth="yes"/>
      <point x="607" y="112"/>
      <point x="607" y="102"/>
      <point x="613" y="96" type="curve" smooth="yes"/>
      <point x="691" y="17" type="line" smooth="yes"/>
      <point x="697" y="11"/>
      <point x="707" y="11"/>
      <point x="713" y="17" type="curve" smooth="yes"/>
      <point x="719" y="23"/>
      <point x="719" y="33"/>
      <point x="713" y="39" type="curve" smooth="yes"/>
    </contour>
  </outline>
</glyph>
<glyph name="dieresis" format="1">
  <advance width="280.0"/>
  <unicode hex="00A8"/>
  <outline>
    <contour>
      <point x="187" y="1298" type="curve" smooth="yes"/>
      <point x="197" y="1298"/>
      <point x="207" y="1306"/>
      <point x="207" y="1318" type="curve" smooth="yes"/>
      <point x="207" y="1328"/>
      <point x="197" y="1338"/>
      <point x="187" y="1338" type="curve" smooth="yes"/>
      <point x="175" y="1338"/>
      <point x="167" y="1328"/>
      <point x="167" y="1318" type="curve" smooth="yes"/>
      <point x="167" y="1306"/>
      <point x="175" y="1298"/>
    </contour>
    <contour>
      <point x="93" y="1298" type="curve" smooth="yes"/>
      <point x="103" y="1298"/>
      <point x="113" y="1306"/>
      <point x="113" y="1318" type="curve" smooth="yes"/>
      <point x="113" y="1328"/>
      <point x="103" y="1338"/>
      <point x="93" y="1338" type="curve" smooth="yes"/>
      <point x="81" y="1338"/>
      <point x="73" y="1328"/>
      <point x="73" y="1318" type="curve" smooth="yes"/>
      <point x="73" y="1306"/>
      <point x="81" y="1298"/>
    </contour>
  </outline>
</glyph>
<glyph name="copyright" format="1">
  <advance width="859.0"/>
  <unicode hex="00A9"/>
  <outline>
    <contour>
      <point x="589" y="863" type="curve" smooth="yes"/>
      <point x="591" y="856"/>
      <point x="600" y="851"/>
      <point x="607" y="853" type="curve" smooth="yes"/>
      <point x="615" y="855"/>
      <point x="620" y="863"/>
      <point x="618" y="871" type="curve" smooth="yes"/>
      <point x="594" y="945"/>
      <point x="516" y="1003"/>
      <point x="430" y="1003" type="curve" smooth="yes"/>
      <point x="303" y="1003"/>
      <point x="200" y="899"/>
      <point x="200" y="774" type="curve" smooth="yes"/>
      <point x="200" y="423" type="line" smooth="yes"/>
      <point x="200" y="297"/>
      <point x="303" y="193"/>
      <point x="430" y="193" type="curve" smooth="yes"/>
      <point x="516" y="193"/>
      <point x="594" y="251"/>
      <point x="618" y="327" type="curve" smooth="yes"/>
      <point x="620" y="334"/>
      <point x="615" y="343"/>
      <point x="607" y="345" type="curve" smooth="yes"/>
      <point x="600" y="347"/>
      <point x="591" y="341"/>
      <point x="589" y="334" type="curve" smooth="yes"/>
      <point x="567" y="271"/>
      <point x="503" y="225"/>
      <point x="430" y="225" type="curve" smooth="yes"/>
      <point x="320" y="225"/>
      <point x="232" y="314"/>
      <point x="232" y="423" type="curve" smooth="yes"/>
      <point x="232" y="774" type="line" smooth="yes"/>
      <point x="232" y="882"/>
      <point x="320" y="971"/>
      <point x="430" y="971" type="curve" smooth="yes"/>
      <point x="503" y="971"/>
      <point x="567" y="925"/>
    </contour>
    <component base="O"/>
  </outline>
</glyph>
<glyph name="acute" format="1">
  <advance width="318.0"/>
  <unicode hex="00B4"/>
  <outline>
    <contour>
      <point x="243" y="1399" type="line"/>
      <point x="249" y="1405"/>
      <point x="249" y="1415"/>
      <point x="243" y="1421" type="curve" smooth="yes"/>
      <point x="237" y="1427"/>
      <point x="227" y="1427"/>
      <point x="221" y="1421" type="curve" smooth="yes"/>
      <point x="87" y="1289" type="line" smooth="yes"/>
      <point x="81" y="1283"/>
      <point x="81" y="1273"/>
      <point x="87" y="1267" type="curve" smooth="yes"/>
      <point x="93" y="1261"/>
      <point x="103" y="1261"/>
      <point x="109" y="1267" type="curve" smooth="yes"/>
    </contour>
  </outline>
</glyph>
<glyph name="paragraph" format="1">
  <advance width="608.0"/>
  <unicode hex="00B6"/>
  <outline>
    <contour>
      <point x="460" y="16" type="line"/>
      <point x="460" y="7"/>
      <point x="467" y="0"/>
      <point x="476" y="0" type="curve" smooth="yes"/>
      <point x="485" y="0"/>
      <point x="492" y="7"/>
      <point x="492" y="16" type="curve" smooth="yes"/>
      <point x="492" y="1184" type="line" smooth="yes"/>
      <point x="492" y="1193"/>
      <point x="485" y="1200"/>
      <point x="476" y="1200" type="curve" smooth="yes"/>
      <point x="467" y="1200"/>
      <point x="460" y="1193"/>
      <point x="460" y="1184" type="curve" smooth="yes"/>
    </contour>
    <contour>
      <point x="370" y="16" type="line"/>
      <point x="370" y="7"/>
      <point x="377" y="0"/>
      <point x="386" y="0" type="curve" smooth="yes"/>
      <point x="395" y="0"/>
      <point x="402" y="7"/>
      <point x="402" y="16" type="curve" smooth="yes"/>
      <point x="402" y="1184" type="line" smooth="yes"/>
      <point x="402" y="1193"/>
      <point x="395" y="1200"/>
      <point x="386" y="1200" type="curve" smooth="yes"/>
      <point x="377" y="1200"/>
      <point x="370" y="1193"/>
      <point x="370" y="1184" type="curve" smooth="yes"/>
    </contour>
    <contour>
      <point x="512" y="1184" type="line"/>
      <point x="521" y="1184"/>
      <point x="528" y="1191"/>
      <point x="528" y="1200" type="curve" smooth="yes"/>
      <point x="528" y="1209"/>
      <point x="521" y="1216"/>
      <point x="512" y="1216" type="curve" smooth="yes"/>
      <point x="302" y="1216" type="line" smooth="yes"/>
      <point x="179" y="1216"/>
      <point x="80" y="1117"/>
      <point x="80" y="994" type="curve" smooth="yes"/>
      <point x="80" y="871"/>
      <point x="179" y="772"/>
      <point x="302" y="772" type="curve" smooth="yes"/>
      <point x="378" y="772" type="line" smooth="yes"/>
      <point x="387" y="772"/>
      <point x="394" y="779"/>
      <point x="394" y="788" type="curve" smooth="yes"/>
      <point x="394" y="797"/>
      <point x="387" y="804"/>
      <point x="378" y="804" type="curve" smooth="yes"/>
      <point x="302" y="804" type="line" smooth="yes"/>
      <point x="197" y="804"/>
      <point x="112" y="889"/>
      <point x="112" y="994" type="curve" smooth="yes"/>
      <point x="112" y="1099"/>
      <point x="197" y="1184"/>
      <point x="302" y="1184" type="curve" smooth="yes"/>
    </contour>
  </outline>
</glyph>
<glyph name="Oslash" format="1">
  <advance width="859.0"/>
  <unicode hex="00D8"/>
  <outline>
    <contour>
      <point x="736" y="1164" type="line"/>
      <point x="740" y="1171"/>
      <point x="736" y="1181"/>
      <point x="729" y="1185" type="curve" smooth="yes"/>
      <point x="722" y="1189"/>
      <point x="712" y="1185"/>
      <point x="708" y="1178" type="curve" smooth="yes"/>
      <point x="121" y="46" type="line" smooth="yes"/>
      <point x="117" y="39"/>
      <point x="121" y="29"/>
      <point x="128" y="25" type="curve" smooth="yes"/>
      <point x="136" y="21"/>
      <point x="145" y="25"/>
      <point x="149" y="32" type="curve" smooth="yes"/>
    </contour>
    <component base="O"/>
  </outline>
</glyph>
<glyph name="ae" format="1">
  <advance width="1312"/>
  <unicode hex="00E6"/>
  <outline>
    <contour>
      <point x="640" y="27" type="line"/>
      <point x="640" y="18"/>
      <point x="647" y="11"/>
      <point x="656" y="11" type="curve" smooth="yes"/>
      <point x="665" y="11"/>
      <point x="672" y="18"/>
      <point x="672" y="27" type="curve" smooth="yes"/>
      <point x="672" y="668" type="line" smooth="yes"/>
      <point x="643" y="797"/>
      <point x="527" y="895"/>
      <point x="388" y="895" type="curve" smooth="yes"/>
      <point x="218" y="895"/>
      <point x="80" y="757"/>
      <point x="80" y="587" type="curve" smooth="yes"/>
      <point x="80" y="292" type="line" smooth="yes"/>
      <point x="80" y="122"/>
      <point x="218" y="-16"/>
      <point x="388" y="-16" type="curve" smooth="yes"/>
      <point x="527" y="-16"/>
      <point x="643" y="82"/>
      <point x="671" y="191" type="curve" smooth="yes"/>
      <point x="672" y="199"/>
      <point x="667" y="207"/>
      <point x="659" y="209" type="curve" smooth="yes"/>
      <point x="650" y="210"/>
      <point x="642" y="205"/>
      <point x="641" y="197" type="curve" smooth="yes"/>
      <point x="615" y="100"/>
      <point x="510" y="16"/>
      <point x="388" y="16" type="curve" smooth="yes"/>
      <point x="236" y="16"/>
      <point x="112" y="140"/>
      <point x="112" y="292" type="curve" smooth="yes"/>
      <point x="112" y="587" type="line" smooth="yes"/>
      <point x="112" y="739"/>
      <point x="236" y="863"/>
      <point x="388" y="863" type="curve" smooth="yes"/>
      <point x="510" y="863"/>
      <point x="614" y="778"/>
      <point x="640" y="666" type="curve" smooth="yes"/>
    </contour>
    <contour>
      <point x="640" y="671" type="curve" smooth="yes"/>
      <point x="639" y="662"/>
      <point x="644" y="654"/>
      <point x="653" y="652" type="curve" smooth="yes"/>
      <point x="661" y="651"/>
      <point x="669" y="656"/>
      <point x="671" y="665" type="curve" smooth="yes"/>
      <point x="697" y="777"/>
      <point x="801" y="863"/>
      <point x="924" y="863" type="curve" smooth="yes"/>
      <point x="1076" y="863"/>
      <point x="1200" y="739"/>
      <point x="1200" y="587" type="curve" smooth="yes"/>
      <point x="1200" y="445" type="line"/>
      <point x="1216" y="461" type="line"/>
      <point x="661" y="461" type="line" smooth="yes"/>
      <point x="652" y="461"/>
      <point x="645" y="454"/>
      <point x="645" y="445" type="curve" smooth="yes"/>
      <point x="645" y="436"/>
      <point x="652" y="429"/>
      <point x="661" y="429" type="curve" smooth="yes"/>
      <point x="1216" y="429" type="line" smooth="yes"/>
      <point x="1225" y="429"/>
      <point x="1232" y="436"/>
      <point x="1232" y="445" type="curve" smooth="yes"/>
      <point x="1232" y="587" type="line" smooth="yes"/>
      <point x="1232" y="757"/>
      <point x="1094" y="895"/>
      <point x="924" y="895" type="curve" smooth="yes"/>
      <point x="785" y="895"/>
      <point x="668" y="798"/>
    </contour>
    <contour>
      <point x="1186" y="182" type="curve" smooth="yes"/>
      <point x="1188" y="190"/>
      <point x="1183" y="198"/>
      <point x="1175" y="200" type="curve" smooth="yes"/>
      <point x="1167" y="202"/>
      <point x="1159" y="197"/>
      <point x="1157" y="189" type="curve" smooth="yes"/>
      <point x="1131" y="91"/>
      <point x="1036" y="16"/>
      <point x="924" y="16" type="curve" smooth="yes"/>
      <point x="801" y="16"/>
      <point x="697" y="102"/>
      <point x="671" y="214" type="curve" smooth="yes"/>
      <point x="669" y="223"/>
      <point x="661" y="228"/>
      <point x="653" y="227" type="curve" smooth="yes"/>
      <point x="644" y="225"/>
      <point x="639" y="217"/>
      <point x="640" y="208" type="curve" smooth="yes"/>
      <point x="668" y="81"/>
      <point x="785" y="-16"/>
      <point x="924" y="-16" type="curve" smooth="yes"/>
      <point x="1051" y="-16"/>
      <point x="1158" y="70"/>
    </contour>
  </outline>
</glyph>
<glyph name="eth" format="1">
  <advance width="775"/>
  <unicode hex="00F0"/>
  <outline>
    <contour>
      <point x="574" y="1037" type="line"/>
      <point x="566" y="1033"/>
      <point x="564" y="1022"/>
      <point x="568" y="1015" type="curve" smooth="yes"/>
      <point x="572" y="1007"/>
      <point x="583" y="1005"/>
      <point x="590" y="1009" type="curve" smooth="yes"/>
      <point x="740" y="1096" type="line" smooth="yes"/>
      <point x="748" y="1100"/>
      <point x="750" y="1111"/>
      <point x="746" y="1118" type="curve" smooth="yes"/>
      <point x="742" y="1126"/>
      <point x="731" y="1128"/>
      <point x="724" y="1124" type="curve" smooth="yes"/>
    </contour>
    <component base="partialdiff"/>
    <component base="partialdiff"/>
  </outline>
</glyph>
<glyph name="divide" format="1">
  <advance width="728.0"/>
  <unicode hex="00F7"/>
  <outline>
    <contour>
      <point x="363" y="269" type="curve" smooth="yes"/>
      <point x="375" y="269"/>
      <point x="387" y="281"/>
      <point x="387" y="293" type="curve" smooth="yes"/>
      <point x="387" y="305"/>
      <point x="375" y="317"/>
      <point x="363" y="317" type="curve" smooth="yes"/>
      <point x="351" y="317"/>
      <point x="339" y="305"/>
      <point x="339" y="293" type="curve" smooth="yes"/>
      <point x="339" y="281"/>
      <point x="351" y="269"/>
    </contour>
    <contour>
      <point x="363" y="535" type="curve" smooth="yes"/>
      <point x="375" y="535"/>
      <point x="387" y="547"/>
      <point x="387" y="559" type="curve" smooth="yes"/>
      <point x="387" y="571"/>
      <point x="375" y="583"/>
      <point x="363" y="583" type="curve" smooth="yes"/>
      <point x="351" y="583"/>
      <point x="339" y="571"/>
      <point x="339" y="559" type="curve" smooth="yes"/>
      <point x="339" y="547"/>
      <point x="351" y="535"/>
    </contour>
    <contour>
      <point x="589" y="410" type="line"/>
      <point x="598" y="410"/>
      <point x="605" y="417"/>
      <point x="605" y="426" type="curve" smooth="yes"/>
      <point x="605" y="435"/>
      <point x="598" y="442"/>
      <point x="589" y="442" type="curve" smooth="yes"/>
      <point x="139" y="442" type="line" smooth="yes"/>
      <point x="130" y="442"/>
      <point x="123" y="435"/>
      <point x="123" y="426" type="curve" smooth="yes"/>
      <point x="123" y="417"/>
      <point x="130" y="410"/>
      <point x="139" y="410" type="curve" smooth="yes"/>
    </contour>
  </outline>
</glyph>
<glyph name="oslash" format="1">
  <advance width="775"/>
  <unicode hex="00F8"/>
  <outline>
    <contour>
      <point x="628" y="867" type="line"/>
      <point x="632" y="874"/>
      <point x="629" y="884"/>
      <point x="621" y="888" type="curve" smooth="yes"/>
      <point x="614" y="892"/>
      <point x="604" y="889"/>
      <point x="600" y="880" type="curve" smooth="yes"/>
      <point x="141" y="11" type="line" smooth="yes"/>
      <point x="137" y="4"/>
      <point x="140" y="-6"/>
      <point x="148" y="-10" type="curve" smooth="yes"/>
      <point x="156" y="-14"/>
      <point x="165" y="-11"/>
      <point x="169" y="-2" type="curve" smooth="yes"/>
    </contour>
    <component base="o"/>
  </outline>
</glyph>
<glyph name="dotlessi" format="1">
  <advance width="252.0"/>
  <unicode hex="0131"/>
  <outline>
    <contour>
      <point x="126" y="879" type="curve" smooth="yes"/>
      <point x="118" y="879"/>
      <point x="110" y="871"/>
      <point x="110" y="863" type="curve" smooth="yes"/>
      <point x="110" y="16" type="line" smooth="yes"/>
      <point x="110" y="8"/>
      <point x="118" y="0"/>
      <point x="126" y="0" type="curve" smooth="yes"/>
      <point x="134" y="0"/>
      <point x="142" y="8"/>
      <point x="142" y="16" type="curve" smooth="yes"/>
      <point x="142" y="863" type="line" smooth="yes"/>
      <point x="142" y="871"/>
      <point x="134" y="879"/>
    </contour>
  </outline>
</glyph>
<glyph name="kgreenlandic" format="1">
  <advance width="740"/>
  <unicode hex="0138"/>
  <outline>
    <contour>
      <point x="112" y="863" type="line"/>
      <point x="112" y="872"/>
      <point x="105" y="879"/>
      <point x="96" y="879" type="curve" smooth="yes"/>
      <point x="87" y="879"/>
      <point x="80" y="872"/>
      <point x="80" y="863" type="curve" smooth="yes"/>
      <point x="80" y="16" type="line" smooth="yes"/>
      <point x="80" y="7"/>
      <point x="87" y="0"/>
      <point x="96" y="0" type="curve" smooth="yes"/>
      <point x="105" y="0"/>
      <point x="112" y="7"/>
      <point x="112" y="16" type="curve" smooth="yes"/>
    </contour>
    <contour>
      <point x="651" y="850" type="line"/>
      <point x="657" y="856"/>
      <point x="659" y="866"/>
      <point x="654" y="873" type="curve" smooth="yes"/>
      <point x="648" y="879"/>
      <point x="638" y="881"/>
      <point x="631" y="876" type="curve" smooth="yes"/>
      <point x="94" y="469" type="line" smooth="yes"/>
      <point x="87" y="463"/>
      <point x="86" y="453"/>
      <point x="91" y="446" type="curve" smooth="yes"/>
      <point x="96" y="440"/>
      <point x="107" y="438"/>
      <point x="114" y="443" type="curve" smooth="yes"/>
    </contour>
    <contour>
      <point x="140" y="478" type="line"/>
      <point x="134" y="484"/>
      <point x="123" y="484"/>
      <point x="117" y="477" type="curve" smooth="yes"/>
      <point x="112" y="471"/>
      <point x="112" y="460"/>
      <point x="118" y="454" type="curve" smooth="yes"/>
      <point x="643" y="4" type="line" smooth="yes"/>
      <point x="649" y="-1"/>
      <point x="660" y="-1"/>
      <point x="666" y="5" type="curve" smooth="yes"/>
      <point x="671" y="12"/>
      <point x="671" y="22"/>
      <point x="665" y="28" type="curve" smooth="yes"/>
    </contour>
  </outline>
</glyph>
<glyph name="oe" format="1">
  <advance width="1295"/>
  <unicode hex="0153"/>
  <outline>
    <contour>
      <point x="1169" y="182" type="curve" smooth="yes"/>
      <point x="1171" y="190"/>
      <point x="1166" y="198"/>
      <point x="1158" y="200" type="curve" smooth="yes"/>
      <point x="1150" y="202"/>
      <point x="1142" y="197"/>
      <point x="1140" y="189" type="curve" smooth="yes"/>
      <point x="1114" y="91"/>
      <point x="1019" y="16"/>
      <point x="907" y="16" type="curve" smooth="yes"/>
      <point x="789" y="16"/>
      <point x="688" y="97"/>
      <point x="662" y="203" type="curve" smooth="yes"/>
      <point x="662" y="676" type="line" smooth="yes"/>
      <point x="688" y="782"/>
      <point x="789" y="863"/>
      <point x="907" y="863" type="curve" smooth="yes"/>
      <point x="1059" y="863"/>
      <point x="1183" y="739"/>
      <point x="1183" y="587" type="curve" smooth="yes"/>
      <point x="1183" y="445" type="line"/>
      <point x="1199" y="461" type="line"/>
      <point x="655" y="461" type="line" smooth="yes"/>
      <point x="646" y="461"/>
      <point x="639" y="454"/>
      <point x="639" y="445" type="curve" smooth="yes"/>
      <point x="639" y="436"/>
      <point x="646" y="429"/>
      <point x="655" y="429" type="curve" smooth="yes"/>
      <point x="1199" y="429" type="line" smooth="yes"/>
      <point x="1208" y="429"/>
      <point x="1215" y="436"/>
      <point x="1215" y="445" type="curve" smooth="yes"/>
      <point x="1215" y="587" type="line" smooth="yes"/>
      <point x="1215" y="757"/>
      <point x="1077" y="895"/>
      <point x="907" y="895" type="curve" smooth="yes"/>
      <point x="773" y="895"/>
      <point x="659" y="803"/>
      <point x="630" y="680" type="curve" smooth="yes"/>
      <point x="630" y="199" type="line" smooth="yes"/>
      <point x="659" y="76"/>
      <point x="773" y="-16"/>
      <point x="907" y="-16" type="curve" smooth="yes"/>
      <point x="1034" y="-16"/>
      <point x="1141" y="70"/>
    </contour>
    <contour>
      <point x="631" y="679" type="curve" smooth="yes"/>
      <point x="633" y="670"/>
      <point x="641" y="665"/>
      <point x="649" y="667" type="curve" smooth="yes"/>
      <point x="657" y="669"/>
      <point x="662" y="677"/>
      <point x="660" y="685" type="curve" smooth="yes"/>
      <point x="632" y="805"/>
      <point x="520" y="895"/>
      <point x="388" y="895" type="curve" smooth="yes"/>
      <point x="218" y="895"/>
      <point x="80" y="757"/>
      <point x="80" y="587" type="curve" smooth="yes"/>
      <point x="80" y="292" type="line" smooth="yes"/>
      <point x="80" y="122"/>
      <point x="218" y="-16"/>
      <point x="388" y="-16" type="curve" smooth="yes"/>
      <point x="520" y="-16"/>
      <point x="632" y="74"/>
      <point x="660" y="194" type="curve" smooth="yes"/>
      <point x="662" y="202"/>
      <point x="657" y="210"/>
      <point x="649" y="212" type="curve" smooth="yes"/>
      <point x="641" y="214"/>
      <point x="633" y="209"/>
      <point x="631" y="200" type="curve" smooth="yes"/>
      <point x="604" y="96"/>
      <point x="505" y="16"/>
      <point x="388" y="16" type="curve" smooth="yes"/>
      <point x="236" y="16"/>
      <point x="112" y="140"/>
      <point x="112" y="292" type="curve" smooth="yes"/>
      <point x="112" y="587" type="line" smooth="yes"/>
      <point x="112" y="739"/>
      <point x="236" y="863"/>
      <point x="388" y="863" type="curve" smooth="yes"/>
      <point x="505" y="863"/>
      <point x="604" y="783"/>
    </contour>
  </outline>
</glyph>
<glyph name="longs" format="1">
  <advance width="404"/>
  <unicode hex="017F"/>
  <outline>
    <contour>
      <point x="388" y="1216" type="curve" smooth="yes"/>
      <point x="218" y="1216"/>
      <point x="80" y="1078"/>
      <point x="80" y="908" type="curve"/>
      <point x="80" y="16" type="line" smooth="yes"/>
      <point x="80" y="8"/>
      <point x="88" y="0"/>
      <point x="96" y="0" type="curve" smooth="yes"/>
      <point x="104" y="0"/>
      <point x="112" y="8"/>
      <point x="112" y="16" type="curve"/>
      <point x="112" y="908" type="line"/>
      <point x="112" y="1060"/>
      <point x="236" y="1184"/>
      <point x="388" y="1184" type="curve" smooth="yes"/>
      <point x="396" y="1184"/>
      <point x="404" y="1192"/>
      <point x="404" y="1200" type="curve" smooth="yes"/>
      <point x="404" y="1208"/>
      <point x="396" y="1216"/>
    </contour>
  </outline>
</glyph>
<glyph name="florin" format="1">
  <advance width="444"/>
  <unicode hex="0192"/>
  <outline>
    <contour>
      <point x="388" y="1184" type="curve" smooth="yes"/>
      <point x="397" y="1184"/>
      <point x="404" y="1191"/>
      <point x="404" y="1200" type="curve" smooth="yes"/>
      <point x="404" y="1209"/>
      <point x="397" y="1216"/>
      <point x="388" y="1216" type="curve" smooth="yes"/>
      <point x="218" y="1216"/>
      <point x="80" y="1078"/>
      <point x="80" y="908" type="curve" smooth="yes"/>
      <point x="80" y="16" type="line" smooth="yes"/>
      <point x="80" y="-58"/>
      <point x="19" y="-118"/>
      <point x="-54" y="-118" type="curve" smooth="yes"/>
      <point x="-63" y="-118"/>
      <point x="-70" y="-125"/>
      <point x="-70" y="-134" type="curve" smooth="yes"/>
      <point x="-70" y="-143"/>
      <point x="-63" y="-150"/>
      <point x="-54" y="-150" type="curve" smooth="yes"/>
      <point x="37" y="-150"/>
      <point x="112" y="-76"/>
      <point x="112" y="16" type="curve" smooth="yes"/>
      <point x="112" y="908" type="line" smooth="yes"/>
      <point x="112" y="1060"/>
      <point x="236" y="1184"/>
    </contour>
    <contour>
      <point x="269" y="590" type="line"/>
      <point x="278" y="590"/>
      <point x="285" y="597"/>
      <point x="285" y="606" type="curve" smooth="yes"/>
      <point x="285" y="615"/>
      <point x="278" y="622"/>
      <point x="269" y="622" type="curve" smooth="yes"/>
      <point x="99" y="622" type="line" smooth="yes"/>
      <point x="90" y="622"/>
      <point x="83" y="615"/>
      <point x="83" y="606" type="curve" smooth="yes"/>
      <point x="83" y="597"/>
      <point x="90" y="590"/>
      <point x="99" y="590" type="curve" smooth="yes"/>
    </contour>
  </outline>
</glyph>
<glyph name="ring" format="1">
  <advance width="292.0"/>
  <unicode hex="02DA"/>
  <outline>
    <contour>
      <point x="171" y="1284" type="curve" smooth="yes"/>
      <point x="195" y="1298"/>
      <point x="204" y="1329"/>
      <point x="190" y="1353" type="curve" smooth="yes"/>
      <point x="176" y="1377"/>
      <point x="145" y="1386"/>
      <point x="121" y="1372" type="curve" smooth="yes"/>
      <point x="97" y="1358"/>
      <point x="88" y="1327"/>
      <point x="102" y="1303" type="curve" smooth="yes"/>
      <point x="116" y="1279"/>
      <point x="147" y="1270"/>
    </contour>
    <contour>
      <point x="161" y="1351" type="curve" smooth="yes"/>
      <point x="173" y="1343"/>
      <point x="177" y="1325"/>
      <point x="169" y="1313" type="curve" smooth="yes"/>
      <point x="161" y="1301"/>
      <point x="143" y="1297"/>
      <point x="131" y="1305" type="curve" smooth="yes"/>
      <point x="119" y="1313"/>
      <point x="115" y="1331"/>
      <point x="123" y="1343" type="curve" smooth="yes"/>
      <point x="131" y="1355"/>
      <point x="149" y="1359"/>
    </contour>
  </outline>
</glyph>
<glyph name="hungarumlaut" format="1">
  <advance width="318.0"/>
  <unicode hex="02DD"/>
  <outline>
    <contour>
      <point x="243" y="1399" type="line"/>
      <point x="249" y="1405"/>
      <point x="249" y="1415"/>
      <point x="243" y="1421" type="curve" smooth="yes"/>
      <point x="237" y="1427"/>
      <point x="227" y="1427"/>
      <point x="221" y="1421" type="curve" smooth="yes"/>
      <point x="87" y="1289" type="line" smooth="yes"/>
      <point x="81" y="1283"/>
      <point x="81" y="1273"/>
      <point x="87" y="1267" type="curve" smooth="yes"/>
      <point x="93" y="1261"/>
      <point x="103" y="1261"/>
      <point x="109" y="1267" type="curve" smooth="yes"/>
    </contour>
    <contour>
      <point x="383" y="1399" type="line"/>
      <point x="389" y="1405"/>
      <point x="389" y="1415"/>
      <point x="383" y="1421" type="curve" smooth="yes"/>
      <point x="377" y="1427"/>
      <point x="367" y="1427"/>
      <point x="361" y="1421" type="curve" smooth="yes"/>
      <point x="227" y="1289" type="line" smooth="yes"/>
      <point x="221" y="1283"/>
      <point x="221" y="1273"/>
      <point x="227" y="1267" type="curve" smooth="yes"/>
      <point x="233" y="1261"/>
      <point x="243" y="1261"/>
      <point x="249" y="1267" type="curve" smooth="yes"/>
    </contour>
  </outline>
</glyph>
<glyph name="Omega" format="1">
  <advance width="859.0"/>
  <unicode hex="03A9"/>
  <outline>
    <contour>
      <point x="751" y="-76" type="line"/>
      <point x="760" y="-76"/>
      <point x="767" y="-69"/>
      <point x="767" y="-60" type="curve" smooth="yes"/>
      <point x="767" y="-51"/>
      <point x="760" y="-44"/>
      <point x="751" y="-44" type="curve" smooth="yes"/>
      <point x="551" y="-44" type="line"/>
      <point x="567" y="-60" type="line"/>
      <point x="567" y="119" type="line"/>
      <point x="553" y="104" type="line"/>
      <point x="682" y="130"/>
      <point x="780" y="246"/>
      <point x="780" y="384" type="curve" smooth="yes"/>
      <point x="779" y="877" type="line" smooth="yes"/>
      <point x="779" y="1070"/>
      <point x="622" y="1227"/>
      <point x="430" y="1227" type="curve" smooth="yes"/>
      <point x="237" y="1227"/>
      <point x="80" y="1070"/>
      <point x="80" y="877" type="curve" smooth="yes"/>
      <point x="80" y="384" type="line" smooth="yes"/>
      <point x="80" y="246"/>
      <point x="179" y="130"/>
      <point x="308" y="104" type="curve"/>
      <point x="294" y="119" type="line"/>
      <point x="294" y="-60" type="line"/>
      <point x="310" y="-44" type="line"/>
      <point x="108" y="-44" type="line" smooth="yes"/>
      <point x="99" y="-44"/>
      <point x="92" y="-51"/>
      <point x="92" y="-60" type="curve" smooth="yes"/>
      <point x="92" y="-69"/>
      <point x="99" y="-76"/>
      <point x="108" y="-76" type="curve" smooth="yes"/>
      <point x="310" y="-76" type="line" smooth="yes"/>
      <point x="319" y="-76"/>
      <point x="326" y="-69"/>
      <point x="326" y="-60" type="curve" smooth="yes"/>
      <point x="326" y="119" type="line" smooth="yes"/>
      <point x="326" y="127"/>
      <point x="319" y="134"/>
      <point x="311" y="135" type="curve" smooth="yes"/>
      <point x="198" y="160"/>
      <point x="112" y="263"/>
      <point x="112" y="384" type="curve" smooth="yes"/>
      <point x="112" y="877" type="line" smooth="yes"/>
      <point x="112" y="1052"/>
      <point x="255" y="1195"/>
      <point x="430" y="1195" type="curve" smooth="yes"/>
      <point x="604" y="1195"/>
      <point x="747" y="1052"/>
      <point x="747" y="877" type="curve" smooth="yes"/>
      <point x="748" y="384" type="line" smooth="yes"/>
      <point x="748" y="263"/>
      <point x="662" y="160"/>
      <point x="549" y="135" type="curve" smooth="yes"/>
      <point x="541" y="134"/>
      <point x="535" y="127"/>
      <point x="535" y="119" type="curve" smooth="yes"/>
      <point x="535" y="-60" type="line" smooth="yes"/>
      <point x="535" y="-69"/>
      <point x="542" y="-76"/>
      <point x="551" y="-76" type="curve" smooth="yes"/>
    </contour>
  </outline>
</glyph>
<glyph name="bullet" format="1">
  <advance width="374.0"/>
  <unicode hex="2022"/>
  <outline>
    <contour>
      <point x="187" y="327" type="curve" smooth="yes"/>
      <point x="245" y="327"/>
      <point x="294" y="374"/>
      <point x="294" y="434" type="curve" smooth="yes"/>
      <point x="294" y="492"/>
      <point x="245" y="541"/>
      <point x="187" y="541" type="curve" smooth="yes"/>
      <point x="127" y="541"/>
      <point x="80" y="492"/>
      <point x="80" y="434" type="curve" smooth="yes"/>
      <point x="80" y="374"/>
      <point x="127" y="327"/>
    </contour>
  </outline>
</glyph>
<glyph name="guilsinglleft" format="1">
  <advance width="284.0"/>
  <unicode hex="2039"/>
  <outline>
    <contour>
      <point x="197" y="293" type="line"/>
      <point x="203" y="287"/>
      <point x="213" y="287"/>
      <point x="219" y="293" type="curve" smooth="yes"/>
      <point x="225" y="299"/>
      <point x="225" y="309"/>
      <point x="219" y="315" type="curve" smooth="yes"/>
      <point x="85" y="447" type="line"/>
      <point x="85" y="425" type="line"/>
      <point x="219" y="557" type="line" smooth="yes"/>
      <point x="225" y="563"/>
      <point x="225" y="573"/>
      <point x="219" y="579" type="curve" smooth="yes"/>
      <point x="213" y="585"/>
      <point x="203" y="585"/>
      <point x="197" y="579" type="curve" smooth="yes"/>
      <point x="63" y="447" type="line" smooth="yes"/>
      <point x="56" y="441"/>
      <point x="56" y="431"/>
      <point x="63" y="425" type="curve" smooth="yes"/>
    </contour>
  </outline>
</glyph>
<glyph name="guilsinglright" format="1">
  <advance width="284.0"/>
  <unicode hex="203A"/>
  <outline>
    <contour>
      <point x="87" y="579" type="line"/>
      <point x="81" y="585"/>
      <point x="71" y="585"/>
      <point x="65" y="579" type="curve" smooth="yes"/>
      <point x="59" y="573"/>
      <point x="59" y="563"/>
      <point x="65" y="557" type="curve" smooth="yes"/>
      <point x="199" y="425" type="line"/>
      <point x="199" y="447" type="line"/>
      <point x="65" y="315" type="line" smooth="yes"/>
      <point x="59" y="309"/>
      <point x="59" y="299"/>
      <point x="65" y="293" type="curve" smooth="yes"/>
      <point x="71" y="287"/>
      <point x="81" y="287"/>
      <point x="87" y="293" type="curve" smooth="yes"/>
      <point x="221" y="425" type="line" smooth="yes"/>
      <point x="228" y="431"/>
      <point x="228" y="441"/>
      <point x="221" y="447" type="curve" smooth="yes"/>
    </contour>
  </outline>
</glyph>
<glyph name="fraction" format="1">
  <advance width="941.0"/>
  <unicode hex="2044"/>
  <outline>
    <contour>
      <point x="3" y="13" type="line"/>
      <point x="-3" y="5"/>
      <point x="-1" y="-5"/>
      <point x="6" y="-9" type="curve" smooth="yes"/>
      <point x="13" y="-15"/>
      <point x="23" y="-13"/>
      <point x="28" y="-7" type="curve" smooth="yes"/>
      <point x="938" y="1191" type="line" smooth="yes"/>
      <point x="944" y="1199"/>
      <point x="942" y="1209"/>
      <point x="936" y="1213" type="curve" smooth="yes"/>
      <point x="928" y="1219"/>
      <point x="918" y="1217"/>
      <point x="914" y="1211" type="curve" smooth="yes"/>
    </contour>
  </outline>
</glyph>
<glyph name="partialdiff" format="1">
  <advance width="775"/>
  <unicode hex="2202"/>
  <outline>
    <contour>
      <point x="663" y="598" type="curve" smooth="yes"/>
      <point x="663" y="589"/>
      <point x="670" y="582"/>
      <point x="679" y="582" type="curve" smooth="yes"/>
      <point x="688" y="582"/>
      <point x="695" y="589"/>
      <point x="695" y="598" type="curve" smooth="yes"/>
      <point x="695" y="768"/>
      <point x="557" y="906"/>
      <point x="388" y="906" type="curve" smooth="yes"/>
      <point x="218" y="906"/>
      <point x="80" y="768"/>
      <point x="80" y="598" type="curve" smooth="yes"/>
      <point x="80" y="281" type="line" smooth="yes"/>
      <point x="80" y="111"/>
      <point x="218" y="-27"/>
      <point x="388" y="-27" type="curve" smooth="yes"/>
      <point x="557" y="-27"/>
      <point x="695" y="111"/>
      <point x="695" y="281" type="curve" smooth="yes"/>
      <point x="695" y="950" type="line" smooth="yes"/>
      <point x="695" y="1076"/>
      <point x="610" y="1183"/>
      <point x="498" y="1212" type="curve" smooth="yes"/>
      <point x="490" y="1214"/>
      <point x="482" y="1209"/>
      <point x="480" y="1201" type="curve" smooth="yes"/>
      <point x="478" y="1193"/>
      <point x="482" y="1185"/>
      <point x="490" y="1183" type="curve" smooth="yes"/>
      <point x="588" y="1157"/>
      <point x="663" y="1062"/>
      <point x="663" y="950" type="curve" smooth="yes"/>
      <point x="663" y="281" type="line" smooth="yes"/>
      <point x="663" y="129"/>
      <point x="539" y="5"/>
      <point x="388" y="5" type="curve" smooth="yes"/>
      <point x="236" y="5"/>
      <point x="112" y="129"/>
      <point x="112" y="281" type="curve" smooth="yes"/>
      <point x="112" y="598" type="line" smooth="yes"/>
      <point x="112" y="750"/>
      <point x="236" y="874"/>
      <point x="388" y="874" type="curve" smooth="yes"/>
      <point x="539" y="874"/>
      <point x="663" y="750"/>
    </contour>
  </outline>
</glyph>
<glyph name="product" format="1">
  <advance width="993"/>
  <unicode hex="220F"/>
  <outline>
    <contour>
      <point x="897" y="-16" type="curve" smooth="yes"/>
      <point x="906" y="-16"/>
      <point x="913" y="-9"/>
      <point x="913" y="0" type="curve" smooth="yes"/>
      <point x="913" y="9"/>
      <point x="906" y="16"/>
      <point x="897" y="16" type="curve" smooth="yes"/>
      <point x="838" y="16"/>
      <point x="789" y="65"/>
      <point x="789" y="124" type="curve" smooth="yes"/>
      <point x="789" y="1178" type="line" smooth="yes"/>
      <point x="789" y="1187"/>
      <point x="782" y="1194"/>
      <point x="773" y="1194" type="curve" smooth="yes"/>
      <point x="764" y="1194"/>
      <point x="757" y="1187"/>
      <point x="757" y="1178" type="curve" smooth="yes"/>
      <point x="757" y="124" type="line" smooth="yes"/>
      <point x="757" y="47"/>
      <point x="820" y="-16"/>
    </contour>
    <contour>
      <point x="192" y="16" type="line"/>
      <point x="192" y="7"/>
      <point x="199" y="0"/>
      <point x="208" y="0" type="curve" smooth="yes"/>
      <point x="217" y="0"/>
      <point x="224" y="7"/>
      <point x="224" y="16" type="curve" smooth="yes"/>
      <point x="224" y="1178" type="line" smooth="yes"/>
      <point x="224" y="1187"/>
      <point x="217" y="1194"/>
      <point x="208" y="1194" type="curve" smooth="yes"/>
      <point x="199" y="1194"/>
      <point x="192" y="1187"/>
      <point x="192" y="1178" type="curve" smooth="yes"/>
    </contour>
    <contour>
      <point x="897" y="1168" type="line"/>
      <point x="906" y="1168"/>
      <point x="913" y="1175"/>
      <point x="913" y="1184" type="curve" smooth="yes"/>
      <point x="913" y="1193"/>
      <point x="906" y="1200"/>
      <point x="897" y="1200" type="curve" smooth="yes"/>
      <point x="96" y="1200" type="line" smooth="yes"/>
      <point x="87" y="1200"/>
      <point x="80" y="1193"/>
      <point x="80" y="1184" type="curve" smooth="yes"/>
      <point x="80" y="1175"/>
      <point x="87" y="1168"/>
      <point x="96" y="1168" type="curve" smooth="yes"/>
    </contour>
  </outline>
</glyph>
<glyph name="radical" format="1">
  <advance width="931.0"/>
  <unicode hex="221A"/>
  <outline>
    <contour>
      <point x="111" y="883" type="line"/>
      <point x="109" y="891"/>
      <point x="100" y="896"/>
      <point x="92" y="894" type="curve" smooth="yes"/>
      <point x="84" y="892"/>
      <point x="79" y="883"/>
      <point x="81" y="875" type="curve" smooth="yes"/>
      <point x="335" y="-21" type="line" smooth="yes"/>
      <point x="342" y="-52"/>
      <point x="358" y="-52"/>
      <point x="365" y="-21" type="curve" smooth="yes"/>
      <point x="699" y="1180" type="line"/>
      <point x="683" y="1168" type="line"/>
      <point x="915" y="1168" type="line" smooth="yes"/>
      <point x="924" y="1168"/>
      <point x="931" y="1175"/>
      <point x="931" y="1184" type="curve" smooth="yes"/>
      <point x="931" y="1193"/>
      <point x="924" y="1200"/>
      <point x="915" y="1200" type="curve" smooth="yes"/>
      <point x="683" y="1200" type="line" smooth="yes"/>
      <point x="677" y="1200"/>
      <point x="670" y="1195"/>
      <point x="668" y="1188" type="curve" smooth="yes"/>
      <point x="335" y="-12" type="line"/>
      <point x="365" y="-12" type="line"/>
    </contour>
  </outline>
</glyph>
<glyph name="integral" format="1">
  <advance width="444"/>
  <unicode hex="222B"/>
  <outline>
    <contour>
      <point x="388" y="1184" type="curve" smooth="yes"/>
      <point x="397" y="1184"/>
      <point x="404" y="1191"/>
      <point x="404" y="1200" type="curve" smooth="yes"/>
      <point x="404" y="1209"/>
      <point x="397" y="1216"/>
      <point x="388" y="1216" type="curve" smooth="yes"/>
      <point x="218" y="1216"/>
      <point x="80" y="1078"/>
      <point x="80" y="908" type="curve" smooth="yes"/>
      <point x="80" y="16" type="line" smooth="yes"/>
      <point x="80" y="-58"/>
      <point x="19" y="-118"/>
      <point x="-54" y="-118" type="curve" smooth="yes"/>
      <point x="-63" y="-118"/>
      <point x="-70" y="-125"/>
      <point x="-70" y="-134" type="curve" smooth="yes"/>
      <point x="-70" y="-143"/>
      <point x="-63" y="-150"/>
      <point x="-54" y="-150" type="curve" smooth="yes"/>
      <point x="37" y="-150"/>
      <point x="112" y="-76"/>
      <point x="112" y="16" type="curve" smooth="yes"/>
      <point x="112" y="908" type="line" smooth="yes"/>
      <point x="112" y="1060"/>
      <point x="236" y="1184"/>
    </contour>
  </outline>
</glyph>
<glyph name="notequal" format="1">
  <advance width="728.0"/>
  <unicode hex="2260"/>
  <outline>
    <contour>
      <point x="417" y="632" type="line"/>
      <point x="418" y="640"/>
      <point x="411" y="649"/>
      <point x="404" y="651" type="curve" smooth="yes"/>
      <point x="394" y="652"/>
      <point x="386" y="645"/>
      <point x="385" y="638" type="curve"/>
      <point x="311" y="220" type="line" smooth="yes"/>
      <point x="310" y="212"/>
      <point x="315" y="203"/>
      <point x="324" y="201" type="curve" smooth="yes"/>
      <point x="332" y="200"/>
      <point x="341" y="207"/>
      <point x="343" y="214" type="curve"/>
    </contour>
    <component base="equal"/>
  </outline>
</glyph>
<glyph name="greaterequal" format="1">
  <advance width="728.0"/>
  <unicode hex="2265"/>
  <outline>
    <contour>
      <point x="149" y="778" type="line"/>
      <point x="142" y="784"/>
      <point x="132" y="783"/>
      <point x="127" y="776" type="curve" smooth="yes"/>
      <point x="121" y="769"/>
      <point x="123" y="759"/>
      <point x="130" y="754" type="curve" smooth="yes"/>
      <point x="576" y="414" type="line"/>
      <point x="576" y="438" type="line"/>
      <point x="130" y="96" type="line" smooth="yes"/>
      <point x="123" y="91"/>
      <point x="121" y="81"/>
      <point x="127" y="74" type="curve" smooth="yes"/>
      <point x="132" y="67"/>
      <point x="142" y="66"/>
      <point x="149" y="72" type="curve" smooth="yes"/>
      <point x="595" y="414" type="line" smooth="yes"/>
      <point x="605" y="420"/>
      <point x="605" y="432"/>
      <point x="595" y="438" type="curve" smooth="yes"/>
    </contour>
    <contour>
      <point x="589" y="-16" type="line"/>
      <point x="598" y="-16"/>
      <point x="605" y="-9"/>
      <point x="605" y="0" type="curve" smooth="yes"/>
      <point x="605" y="9"/>
      <point x="598" y="16"/>
      <point x="589" y="16" type="curve" smooth="yes"/>
      <point x="142" y="16" type="line" smooth="yes"/>
      <point x="133" y="16"/>
      <point x="126" y="9"/>
      <point x="126" y="0" type="curve" smooth="yes"/>
      <point x="126" y="-9"/>
      <point x="133" y="-16"/>
      <point x="142" y="-16" type="curve" smooth="yes"/>
    </contour>
  </outline>
</glyph>
<glyph name="dotlessj" format="1">
  <advance width="255"/>
  <outline>
    <contour>
      <point x="10" y="-139" type="curve" smooth="yes"/>
      <point x="3" y="-143"/>
      <point x="0" y="-152"/>
      <point x="4" y="-159" type="curve" smooth="yes"/>
      <point x="8" y="-166"/>
      <point x="17" y="-168"/>
      <point x="24" y="-164" type="curve" smooth="yes"/>
      <point x="92" y="-137"/>
      <point x="142" y="-66"/>
      <point x="142" y="16" type="curve" smooth="yes"/>
      <point x="142" y="863" type="line" smooth="yes"/>
      <point x="142" y="872"/>
      <point x="135" y="879"/>
      <point x="126" y="879" type="curve" smooth="yes"/>
      <point x="117" y="879"/>
      <point x="110" y="872"/>
      <point x="110" y="863" type="curve" smooth="yes"/>
      <point x="110" y="16" type="line" smooth="yes"/>
      <point x="110" y="-55"/>
      <point x="67" y="-116"/>
    </contour>
  </outline>
</glyph>
<glyph name="five.sup" format="1">
  <advance width="462"/>
  <outline>
    <contour>
      <point x="112" y="724" type="curve" smooth="yes"/>
      <point x="112" y="733"/>
      <point x="105" y="740"/>
      <point x="96" y="740" type="curve" smooth="yes"/>
      <point x="87" y="740"/>
      <point x="80" y="733"/>
      <point x="80" y="724" type="curve" smooth="yes"/>
      <point x="80" y="641"/>
      <point x="148" y="573"/>
      <point x="231" y="573" type="curve" smooth="yes"/>
      <point x="314" y="573"/>
      <point x="382" y="641"/>
      <point x="382" y="724" type="curve" smooth="yes"/>
      <point x="382" y="825" type="line" smooth="yes"/>
      <point x="382" y="909"/>
      <point x="314" y="976"/>
      <point x="231" y="976" type="curve" smooth="yes"/>
      <point x="97" y="976" type="line"/>
      <point x="113" y="960" type="line"/>
      <point x="112" y="1189" type="line"/>
      <point x="96" y="1173" type="line"/>
      <point x="366" y="1173" type="line" smooth="yes"/>
      <point x="375" y="1173"/>
      <point x="382" y="1180"/>
      <point x="382" y="1189" type="curve" smooth="yes"/>
      <point x="382" y="1198"/>
      <point x="375" y="1205"/>
      <point x="366" y="1205" type="curve" smooth="yes"/>
      <point x="96" y="1205" type="line" smooth="yes"/>
      <point x="87" y="1205"/>
      <point x="80" y="1198"/>
      <point x="80" y="1189" type="curve" smooth="yes"/>
      <point x="81" y="960" type="line" smooth="yes"/>
      <point x="81" y="951"/>
      <point x="88" y="944"/>
      <point x="97" y="944" type="curve" smooth="yes"/>
      <point x="231" y="944" type="line" smooth="yes"/>
      <point x="296" y="944"/>
      <point x="350" y="891"/>
      <point x="350" y="825" type="curve" smooth="yes"/>
      <point x="350" y="724" type="line" smooth="yes"/>
      <point x="350" y="659"/>
      <point x="296" y="605"/>
      <point x="231" y="605" type="curve" smooth="yes"/>
      <point x="166" y="605"/>
      <point x="112" y="659"/>
    </contour>
  </outline>
</glyph>
<glyph name="four.oldstyle" format="1">
  <advance width="728.0"/>
  <outline>
    <contour>
      <point x="625" y="0" type="line"/>
      <point x="634" y="0"/>
      <point x="641" y="7"/>
      <point x="641" y="16" type="curve" smooth="yes"/>
      <point x="641" y="25"/>
      <point x="634" y="32"/>
      <point x="625" y="32" type="curve" smooth="yes"/>
      <point x="96" y="32" type="line"/>
      <point x="111" y="12" type="line"/>
      <point x="379" y="858" type="line"/>
      <point x="364" y="847" type="line"/>
      <point x="632" y="847" type="line"/>
      <point x="616" y="863" type="line"/>
      <point x="616" y="-252" type="line" smooth="yes"/>
      <point x="616" y="-261"/>
      <point x="623" y="-268"/>
      <point x="632" y="-268" type="curve" smooth="yes"/>
      <point x="641" y="-268"/>
      <point x="648" y="-261"/>
      <point x="648" y="-252" type="curve" smooth="yes"/>
      <point x="648" y="863" type="line" smooth="yes"/>
      <point x="648" y="872"/>
      <point x="641" y="879"/>
      <point x="632" y="879" type="curve" smooth="yes"/>
      <point x="364" y="879" type="line" smooth="yes"/>
      <point x="357" y="879"/>
      <point x="351" y="874"/>
      <point x="349" y="868" type="curve" smooth="yes"/>
      <point x="81" y="21" type="line" smooth="yes"/>
      <point x="77" y="10"/>
      <point x="84" y="0"/>
      <point x="96" y="0" type="curve" smooth="yes"/>
    </contour>
  </outline>
</glyph>
<glyph name="four.sup" format="1">
  <advance width="460"/>
  <outline>
    <contour>
      <point x="361" y="718" type="line"/>
      <point x="370" y="718"/>
      <point x="377" y="725"/>
      <point x="377" y="734" type="curve" smooth="yes"/>
      <point x="377" y="743"/>
      <point x="370" y="750"/>
      <point x="361" y="750" type="curve" smooth="yes"/>
      <point x="96" y="750" type="line"/>
      <point x="112" y="729" type="line"/>
      <point x="246" y="1179" type="line"/>
      <point x="230" y="1168" type="line"/>
      <point x="364" y="1168" type="line"/>
      <point x="348" y="1184" type="line"/>
      <point x="348" y="600" type="line" smooth="yes"/>
      <point x="348" y="591"/>
      <point x="355" y="584"/>
      <point x="364" y="584" type="curve" smooth="yes"/>
      <point x="373" y="584"/>
      <point x="380" y="591"/>
      <point x="380" y="600" type="curve" smooth="yes"/>
      <point x="380" y="1184" type="line" smooth="yes"/>
      <point x="380" y="1193"/>
      <point x="373" y="1200"/>
      <point x="364" y="1200" type="curve" smooth="yes"/>
      <point x="230" y="1200" type="line" smooth="yes"/>
      <point x="224" y="1200"/>
      <point x="217" y="1195"/>
      <point x="215" y="1189" type="curve" smooth="yes"/>
      <point x="81" y="739" type="line" smooth="yes"/>
      <point x="78" y="727"/>
      <point x="85" y="718"/>
      <point x="96" y="718" type="curve" smooth="yes"/>
    </contour>
  </outline>
</glyph>
<glyph name="nine.oldstyle" format="1">
  <advance width="728.0"/>
  <outline>
    <contour>
      <point x="112" y="-112" type="curve" smooth="yes"/>
      <point x="112" y="-103"/>
      <point x="105" y="-96"/>
      <point x="96" y="-96" type="curve" smooth="yes"/>
      <point x="87" y="-96"/>
      <point x="80" y="-103"/>
      <point x="80" y="-112" type="curve" smooth="yes"/>
      <point x="80" y="-269"/>
      <point x="208" y="-396"/>
      <point x="364" y="-396" type="curve" smooth="yes"/>
      <point x="521" y="-396"/>
      <point x="648" y="-269"/>
      <point x="648" y="-112" type="curve" smooth="yes"/>
      <point x="648" y="612" type="line" smooth="yes"/>
      <point x="648" y="768"/>
      <point x="521" y="895"/>
      <point x="364" y="895" type="curve" smooth="yes"/>
      <point x="208" y="895"/>
      <point x="80" y="768"/>
      <point x="80" y="612" type="curve" smooth="yes"/>
      <point x="80" y="268" type="line" smooth="yes"/>
      <point x="80" y="111"/>
      <point x="208" y="-16"/>
      <point x="364" y="-16" type="curve" smooth="yes"/>
      <point x="506" y="-16"/>
      <point x="623" y="89"/>
      <point x="645" y="225" type="curve" smooth="yes"/>
      <point x="646" y="233"/>
      <point x="640" y="242"/>
      <point x="631" y="244" type="curve" smooth="yes"/>
      <point x="623" y="245"/>
      <point x="614" y="239"/>
      <point x="613" y="230" type="curve" smooth="yes"/>
      <point x="595" y="109"/>
      <point x="490" y="16"/>
      <point x="364" y="16" type="curve" smooth="yes"/>
      <point x="226" y="16"/>
      <point x="112" y="129"/>
      <point x="112" y="268" type="curve" smooth="yes"/>
      <point x="112" y="612" type="line" smooth="yes"/>
      <point x="112" y="750"/>
      <point x="226" y="863"/>
      <point x="364" y="863" type="curve" smooth="yes"/>
      <point x="503" y="863"/>
      <point x="616" y="750"/>
      <point x="616" y="612" type="curve" smooth="yes"/>
      <point x="616" y="-112" type="line" smooth="yes"/>
      <point x="616" y="-251"/>
      <point x="503" y="-364"/>
      <point x="364" y="-364" type="curve" smooth="yes"/>
      <point x="226" y="-364"/>
      <point x="112" y="-251"/>
    </contour>
  </outline>
</glyph>
<glyph name="nine.sup" format="1">
  <advance width="463"/>
  <outline>
    <contour>
      <point x="112" y="730" type="curve" smooth="yes"/>
      <point x="112" y="739"/>
      <point x="105" y="746"/>
      <point x="96" y="746" type="curve" smooth="yes"/>
      <point x="87" y="746"/>
      <point x="80" y="739"/>
      <point x="80" y="730" type="curve" smooth="yes"/>
      <point x="80" y="647"/>
      <point x="148" y="579"/>
      <point x="232" y="579" type="curve" smooth="yes"/>
      <point x="315" y="579"/>
      <point x="383" y="647"/>
      <point x="383" y="730" type="curve" smooth="yes"/>
      <point x="383" y="1075" type="line" smooth="yes"/>
      <point x="383" y="1159"/>
      <point x="315" y="1227"/>
      <point x="232" y="1227" type="curve" smooth="yes"/>
      <point x="148" y="1227"/>
      <point x="80" y="1159"/>
      <point x="80" y="1075" type="curve" smooth="yes"/>
      <point x="80" y="936" type="line" smooth="yes"/>
      <point x="80" y="853"/>
      <point x="148" y="785"/>
      <point x="232" y="785" type="curve" smooth="yes"/>
      <point x="312" y="785"/>
      <point x="379" y="849"/>
      <point x="383" y="929" type="curve" smooth="yes"/>
      <point x="383" y="938"/>
      <point x="376" y="945"/>
      <point x="368" y="945" type="curve" smooth="yes"/>
      <point x="359" y="946"/>
      <point x="351" y="939"/>
      <point x="351" y="930" type="curve" smooth="yes"/>
      <point x="348" y="867"/>
      <point x="295" y="817"/>
      <point x="232" y="817" type="curve" smooth="yes"/>
      <point x="166" y="817"/>
      <point x="112" y="871"/>
      <point x="112" y="936" type="curve" smooth="yes"/>
      <point x="112" y="1075" type="line" smooth="yes"/>
      <point x="112" y="1141"/>
      <point x="166" y="1195"/>
      <point x="232" y="1195" type="curve" smooth="yes"/>
      <point x="297" y="1195"/>
      <point x="351" y="1141"/>
      <point x="351" y="1075" type="curve" smooth="yes"/>
      <point x="351" y="730" type="line" smooth="yes"/>
      <point x="351" y="665"/>
      <point x="297" y="611"/>
      <point x="232" y="611" type="curve" smooth="yes"/>
      <point x="166" y="611"/>
      <point x="112" y="665"/>
    </contour>
  </outline>
</glyph>
<glyph name="one.oldstyle" format="1">
  <advance width="728.0"/>
  <outline>
    <contour>
      <point x="349" y="16" type="line"/>
      <point x="349" y="7"/>
      <point x="356" y="0"/>
      <point x="365" y="0" type="curve" smooth="yes"/>
      <point x="374" y="0"/>
      <point x="381" y="7"/>
      <point x="381" y="16" type="curve" smooth="yes"/>
      <point x="381" y="891" type="line" smooth="yes"/>
      <point x="381" y="912"/>
      <point x="369" y="918"/>
      <point x="354" y="902" type="curve" smooth="yes"/>
      <point x="84" y="631" type="line" smooth="yes"/>
      <point x="78" y="625"/>
      <point x="78" y="615"/>
      <point x="84" y="609" type="curve" smooth="yes"/>
      <point x="90" y="603"/>
      <point x="100" y="603"/>
      <point x="106" y="609" type="curve" smooth="yes"/>
      <point x="376" y="880" type="line"/>
      <point x="349" y="891" type="line"/>
    </contour>
    <contour>
      <point x="633" y="0" type="line"/>
      <point x="642" y="0"/>
      <point x="649" y="7"/>
      <point x="649" y="16" type="curve" smooth="yes"/>
      <point x="649" y="25"/>
      <point x="642" y="32"/>
      <point x="633" y="32" type="curve" smooth="yes"/>
      <point x="97" y="32" type="line" smooth="yes"/>
      <point x="88" y="32"/>
      <point x="81" y="25"/>
      <point x="81" y="16" type="curve" smooth="yes"/>
      <point x="81" y="7"/>
      <point x="88" y="0"/>
      <point x="97" y="0" type="curve" smooth="yes"/>
    </contour>
  </outline>
</glyph>
<glyph name="seven.sup" format="1">
  <advance width="460"/>
  <outline>
    <contour>
      <point x="96" y="1200" type="line"/>
      <point x="87" y="1200"/>
      <point x="80" y="1193"/>
      <point x="80" y="1184" type="curve" smooth="yes"/>
      <point x="80" y="1175"/>
      <point x="87" y="1168"/>
      <point x="96" y="1168" type="curve" smooth="yes"/>
      <point x="364" y="1168" type="line"/>
      <point x="348" y="1188" type="line"/>
      <point x="211" y="604" type="line" smooth="yes"/>
      <point x="209" y="595"/>
      <point x="215" y="587"/>
      <point x="223" y="584" type="curve" smooth="yes"/>
      <point x="232" y="583"/>
      <point x="240" y="588"/>
      <point x="242" y="596" type="curve" smooth="yes"/>
      <point x="380" y="1180" type="line" smooth="yes"/>
      <point x="382" y="1192"/>
      <point x="375" y="1200"/>
      <point x="364" y="1200" type="curve" smooth="yes"/>
    </contour>
  </outline>
</glyph>
<glyph name="three.sup" format="1">
  <advance width="463"/>
  <outline>
    <contour>
      <point x="251" y="961" type="curve" smooth="yes"/>
      <point x="243" y="960"/>
      <point x="236" y="953"/>
      <point x="236" y="944" type="curve" smooth="yes"/>
      <point x="237" y="935"/>
      <point x="244" y="928"/>
      <point x="253" y="929" type="curve" smooth="yes"/>
      <point x="324" y="933"/>
      <point x="381" y="992"/>
      <point x="381" y="1064" type="curve" smooth="yes"/>
      <point x="381" y="1096" type="line" smooth="yes"/>
      <point x="381" y="1171"/>
      <point x="319" y="1232"/>
      <point x="245" y="1232" type="curve" smooth="yes"/>
      <point x="219" y="1232" type="line" smooth="yes"/>
      <point x="144" y="1232"/>
      <point x="83" y="1171"/>
      <point x="83" y="1096" type="curve" smooth="yes"/>
      <point x="83" y="1087"/>
      <point x="90" y="1080"/>
      <point x="99" y="1080" type="curve" smooth="yes"/>
      <point x="108" y="1080"/>
      <point x="115" y="1087"/>
      <point x="115" y="1096" type="curve" smooth="yes"/>
      <point x="115" y="1153"/>
      <point x="162" y="1200"/>
      <point x="219" y="1200" type="curve" smooth="yes"/>
      <point x="245" y="1200" type="line" smooth="yes"/>
      <point x="301" y="1200"/>
      <point x="349" y="1153"/>
      <point x="349" y="1096" type="curve" smooth="yes"/>
      <point x="349" y="1064" type="line" smooth="yes"/>
      <point x="349" y="1010"/>
      <point x="305" y="964"/>
    </contour>
    <contour>
      <point x="111" y="724" type="curve" smooth="yes"/>
      <point x="111" y="733"/>
      <point x="104" y="740"/>
      <point x="95" y="740" type="curve" smooth="yes"/>
      <point x="86" y="740"/>
      <point x="79" y="733"/>
      <point x="79" y="724" type="curve" smooth="yes"/>
      <point x="79" y="647"/>
      <point x="142" y="584"/>
      <point x="219" y="584" type="curve" smooth="yes"/>
      <point x="245" y="584" type="line" smooth="yes"/>
      <point x="321" y="584"/>
      <point x="384" y="647"/>
      <point x="384" y="724" type="curve" smooth="yes"/>
      <point x="384" y="821" type="line" smooth="yes"/>
      <point x="384" y="896"/>
      <point x="325" y="956"/>
      <point x="251" y="960" type="curve" smooth="yes"/>
      <point x="242" y="960"/>
      <point x="235" y="953"/>
      <point x="235" y="944" type="curve" smooth="yes"/>
      <point x="234" y="935"/>
      <point x="241" y="928"/>
      <point x="250" y="928" type="curve" smooth="yes"/>
      <point x="306" y="925"/>
      <point x="352" y="878"/>
      <point x="352" y="821" type="curve" smooth="yes"/>
      <point x="352" y="724" type="line" smooth="yes"/>
      <point x="352" y="665"/>
      <point x="303" y="616"/>
      <point x="245" y="616" type="curve" smooth="yes"/>
      <point x="219" y="616" type="line" smooth="yes"/>
      <point x="160" y="616"/>
      <point x="111" y="665"/>
    </contour>
  </outline>
</glyph>
<glyph name="two.oldstyle" format="1">
  <advance width="728.0"/>
  <outline>
    <contour>
      <point x="602" y="0" type="line"/>
      <point x="611" y="0"/>
      <point x="618" y="7"/>
      <point x="618" y="16" type="curve" smooth="yes"/>
      <point x="618" y="25"/>
      <point x="611" y="32"/>
      <point x="602" y="32" type="curve" smooth="yes"/>
      <point x="121" y="32" type="line"/>
      <point x="137" y="16" type="line"/>
      <point x="137" y="90" type="line" smooth="yes"/>
      <point x="137" y="213"/>
      <point x="238" y="314"/>
      <point x="362" y="314" type="curve" smooth="yes"/>
      <point x="503" y="314"/>
      <point x="618" y="430"/>
      <point x="618" y="571" type="curve" smooth="yes"/>
      <point x="618" y="639" type="line" smooth="yes"/>
      <point x="618" y="780"/>
      <point x="503" y="895"/>
      <point x="362" y="895" type="curve" smooth="yes"/>
      <point x="220" y="895"/>
      <point x="105" y="780"/>
      <point x="105" y="639" type="curve" smooth="yes"/>
      <point x="105" y="630"/>
      <point x="112" y="623"/>
      <point x="121" y="623" type="curve" smooth="yes"/>
      <point x="130" y="623"/>
      <point x="137" y="630"/>
      <point x="137" y="639" type="curve" smooth="yes"/>
      <point x="137" y="762"/>
      <point x="238" y="863"/>
      <point x="362" y="863" type="curve" smooth="yes"/>
      <point x="485" y="863"/>
      <point x="586" y="762"/>
      <point x="586" y="639" type="curve" smooth="yes"/>
      <point x="586" y="571" type="line" smooth="yes"/>
      <point x="586" y="448"/>
      <point x="485" y="346"/>
      <point x="362" y="346" type="curve" smooth="yes"/>
      <point x="220" y="346"/>
      <point x="105" y="231"/>
      <point x="105" y="90" type="curve" smooth="yes"/>
      <point x="105" y="16" type="line" smooth="yes"/>
      <point x="105" y="7"/>
      <point x="112" y="0"/>
      <point x="121" y="0" type="curve" smooth="yes"/>
    </contour>
  </outline>
</glyph>
<glyph name="two.sup" format="1">
  <advance width="462"/>
  <outline>
    <contour>
      <point x="366" y="600" type="line"/>
      <point x="375" y="600"/>
      <point x="382" y="607"/>
      <point x="382" y="616" type="curve" smooth="yes"/>
      <point x="382" y="625"/>
      <point x="375" y="632"/>
      <point x="366" y="632" type="curve" smooth="yes"/>
      <point x="96" y="632" type="line"/>
      <point x="112" y="616" type="line"/>
      <point x="112" y="710" type="line" smooth="yes"/>
      <point x="112" y="776"/>
      <point x="166" y="829"/>
      <point x="231" y="829" type="curve" smooth="yes"/>
      <point x="314" y="829"/>
      <point x="382" y="897"/>
      <point x="382" y="980" type="curve" smooth="yes"/>
      <point x="382" y="1081" type="line" smooth="yes"/>
      <point x="382" y="1165"/>
      <point x="314" y="1232"/>
      <point x="231" y="1232" type="curve" smooth="yes"/>
      <point x="148" y="1232"/>
      <point x="80" y="1165"/>
      <point x="80" y="1081" type="curve" smooth="yes"/>
      <point x="80" y="1072"/>
      <point x="87" y="1065"/>
      <point x="96" y="1065" type="curve" smooth="yes"/>
      <point x="105" y="1065"/>
      <point x="112" y="1072"/>
      <point x="112" y="1081" type="curve" smooth="yes"/>
      <point x="112" y="1147"/>
      <point x="166" y="1200"/>
      <point x="231" y="1200" type="curve" smooth="yes"/>
      <point x="296" y="1200"/>
      <point x="350" y="1147"/>
      <point x="350" y="1081" type="curve" smooth="yes"/>
      <point x="350" y="980" type="line" smooth="yes"/>
      <point x="350" y="915"/>
      <point x="296" y="861"/>
      <point x="231" y="861" type="curve" smooth="yes"/>
      <point x="148" y="861"/>
      <point x="80" y="794"/>
      <point x="80" y="710" type="curve" smooth="yes"/>
      <point x="80" y="616" type="line" smooth="yes"/>
      <point x="80" y="607"/>
      <point x="87" y="600"/>
      <point x="96" y="600" type="curve" smooth="yes"/>
    </contour>
  </outline>
</glyph>
<glyph name="zero.sup" format="1">
  <advance width="463"/>
  <outline>
    <contour>
      <point x="383" y="1080" type="line"/>
      <point x="383" y="1164"/>
      <point x="315" y="1232"/>
      <point x="232" y="1232" type="curve" smooth="yes"/>
      <point x="148" y="1232"/>
      <point x="80" y="1164"/>
      <point x="80" y="1080" type="curve" smooth="yes"/>
      <point x="80" y="735" type="line" smooth="yes"/>
      <point x="80" y="652"/>
      <point x="148" y="584"/>
      <point x="232" y="584" type="curve" smooth="yes"/>
      <point x="315" y="584"/>
      <point x="383" y="652"/>
      <point x="383" y="735" type="curve" smooth="yes"/>
    </contour>
    <contour>
      <point x="351" y="1080" type="curve" smooth="yes"/>
      <point x="351" y="735" type="line" smooth="yes"/>
      <point x="351" y="670"/>
      <point x="297" y="616"/>
      <point x="232" y="616" type="curve" smooth="yes"/>
      <point x="166" y="616"/>
      <point x="112" y="670"/>
      <point x="112" y="735" type="curve" smooth="yes"/>
      <point x="112" y="1080" type="line" smooth="yes"/>
      <point x="112" y="1146"/>
      <point x="166" y="1200"/>
      <point x="232" y="1200" type="curve" smooth="yes"/>
      <point x="297" y="1200"/>
      <point x="351" y="1146"/>
    </contour>
    <contour>
      <point x="85" y="750" type="line"/>
      <point x="80" y="744"/>
      <point x="81" y="734"/>
      <point x="87" y="729" type="curve" smooth="yes"/>
      <point x="93" y="723"/>
      <point x="103" y="724"/>
      <point x="108" y="730" type="curve" smooth="yes"/>
      <point x="379" y="1064" type="line" smooth="yes"/>
      <point x="384" y="1070"/>
      <point x="383" y="1080"/>
      <point x="377" y="1085" type="curve" smooth="yes"/>
      <point x="370" y="1091"/>
      <point x="360" y="1090"/>
      <point x="355" y="1084" type="curve" smooth="yes"/>
    </contour>
  </outline>
</glyph>
